STARTFONT 2.1
FONT -Monotype-Plantin-Bold-I-Normal--50-360-100-100-P-341-iso8859-5
SIZE 36 100 100
FONTBOUNDINGBOX 75 56 -12 -11

STARTPROPERTIES 24
FOUNDRY "Monotype"
FAMILY_NAME "Plantin"
WEIGHT_NAME "Bold"
SLANT "I"
SETWIDTH_NAME "Normal"
ADD_STYLE_NAME ""
PIXEL_SIZE 50
POINT_SIZE 360
RESOLUTION_X 100
RESOLUTION_Y 100
SPACING "P"
AVERAGE_WIDTH 341
CHARSET_REGISTRY "iso8859"
CHARSET_ENCODING "5"
FACE_NAME "Plantin Bold Inclined ISO Latin Cyrillic"
_DEC_DEVICE_FONTNAMES "PS=plantin-bin-latcyrillic"
COPYRIGHT "Copyright (c) 1993 Monotype Typography Ltd."
CAP_HEIGHT 39
X_HEIGHT 25
WEIGHT 10
QUAD_WIDTH 37
DEFAULT_CHAR 160
FONT_DESCENT 12
FONT_ASCENT 46
ENDPROPERTIES

CHARS 191

STARTCHAR space
ENCODING 32
SWIDTH 250 0
DWIDTH 13 0
BBX 0 0 0 0
BITMAP
ENDCHAR

STARTCHAR exclam
ENCODING 33
SWIDTH 365 0
DWIDTH 18 0
BBX 21 35 1 -1
BITMAP
000FE0
000FE0
001FE0
001FE0
001FC0
001FC0
001F80
001F80
003F00
003F00
003E00
003E00
003E00
007C00
007C00
007800
007800
007000
007000
00E000
00E000
00C000
00C000
000000
000000
000000
000000
0F0000
1F8000
3FC000
3FC000
3FC000
3FC000
1F8000
0F0000
ENDCHAR

STARTCHAR quotedbl
ENCODING 34
SWIDTH 552 0
DWIDTH 28 0
BBX 23 16 8 18
BITMAP
070070
0F80F8
1FC1F8
1FC3F8
3F83F8
3F83F8
3F03F0
3F03E0
3E03E0
3E03C0
3C03C0
3C0380
380380
300300
300300
200200
ENDCHAR

STARTCHAR numbersign
ENCODING 35
SWIDTH 500 0
DWIDTH 25 0
BBX 26 34 0 0
BITMAP
00700E00
00701E00
00701C00
00701C00
00F01C00
00E01C00
00E03C00
00E03800
00E03800
01E03800
01C03800
7FFFFF00
7FFFFF00
7FFFFF00
03C07000
03807000
0380E000
0380E000
0780E000
0780E000
0700E000
7FFFFF00
7FFFFF00
7FFFFF00
0E01C000
0E03C000
0E038000
0E038000
1E038000
1C038000
1C078000
1C070000
1C070000
3C070000
ENDCHAR

STARTCHAR dollar
ENCODING 36
SWIDTH 542 0
DWIDTH 27 0
BBX 29 39 1 -5
BITMAP
00001800
0003F800
001FFE00
003F3F80
007C37C0
00F873E0
01F061E0
01F061F0
01F0E1F0
03F0C1F0
03F0C1F0
03F9C000
01FD8000
01FF8000
01FF8000
00FFC000
007FE000
003FF000
001FF800
000FFC00
0007FE00
000FFE00
000EFE00
000C7F00
7C1C3F00
7C1C3F00
7C183F00
7C383E00
7C383E00
3C307C00
3E307C00
1E70F800
0FE3E000
07FFC000
01FE0000
00C00000
00C00000
01C00000
01800000
ENDCHAR

STARTCHAR percent
ENCODING 37
SWIDTH 833 0
DWIDTH 42 0
BBX 44 37 -1 -2
BITMAP
003E00001F00
01FF80003E00
03C7C0007C00
0FC7E0007800
0F87E000F000
1F87E001F000
3F87E003E000
3F07E007C000
3F0FE00F8000
7F0FE01F0000
7F0FE03E0000
7F0FC07C0000
7E1FC0F80000
7E1F80F00000
3E1F01F00000
3E3E03E00000
1FFC07C00000
07E00F800000
00001F00FC00
00003E03FF00
00007C078F80
0000F81F8F80
0001F01F0FC0
0003E03F0FC0
0003E07F0FC0
0007C07E0FC0
000F807E1FC0
001F00FE1FC0
003E00FE1F80
007C00FE1F80
00F800FC3F80
01F000FC3F00
03E000FC3F00
07C0007C7E00
07C0007C7C00
0F80003FF000
1F000007C000
ENDCHAR

STARTCHAR ampersand
ENCODING 38
SWIDTH 958 0
DWIDTH 48 0
BBX 47 36 2 -1
BITMAP
00003FC00000
0003FFF80000
000FFFFC0000
001FC0FE0000
003F80FE0000
007F007E0000
00FF007E00E0
00FE003E01F0
00FE000003F8
00FE000001F8
00FE000000FC
00FF000F807C
007F807FE01C
003FC0FFF81C
01FF81FFFC1C
03FC03FFFF18
0FF007FFFFF8
1FE00707FFF8
1FC00601FFF0
3FC00E00FFE0
3F800F007F80
7F800FC03000
7F800FE03000
7F8007E03000
7F8007E03000
7FC003E03000
7FC000007000
3FE000006000
3FF00000E000
1FF80001C000
0FFE00078000
0FFFE03F0000
03FFFFFE0000
01FFFFF80000
007FFFE00000
0007FE000000
ENDCHAR

STARTCHAR quoteright
ENCODING 39
SWIDTH 365 0
DWIDTH 18 0
BBX 14 15 3 20
BITMAP
07C0
07E0
0FF0
0FF0
0FF0
07F0
03F0
01F0
01E0
01E0
03C0
0780
3F00
7E00
7000
ENDCHAR

STARTCHAR parenleft
ENCODING 40
SWIDTH 437 0
DWIDTH 22 0
BBX 25 44 3 -9
BITMAP
00000300
00001F00
00007E00
0001FC00
0007F000
000FE000
001FC000
003F8000
007F0000
00FF0000
01FE0000
01FC0000
03FC0000
03F80000
07F80000
07F00000
0FF00000
0FE00000
1FE00000
1FE00000
1FC00000
1FC00000
3FC00000
3F800000
3F800000
3F800000
3F800000
3F800000
3F000000
3F000000
3F000000
3F000000
1F000000
1F000000
1F000000
0F000000
0F000000
0F800000
07800000
03800000
03C00000
01C00000
00E00000
00400000
ENDCHAR

STARTCHAR parenright
ENCODING 41
SWIDTH 437 0
DWIDTH 22 0
BBX 25 44 -6 -10
BITMAP
00010000
00038000
0001C000
0001E000
0000F000
0000F000
00007800
00007800
00007C00
00007C00
00007C00
00007E00
00007E00
00007E00
00007E00
00007E00
0000FE00
0000FE00
0000FE00
0000FE00
0000FE00
0001FE00
0001FC00
0001FC00
0003FC00
0003FC00
0003F800
0007F800
0007F000
000FF000
000FE000
001FE000
001FC000
003F8000
007F8000
007F0000
00FE0000
01FC0000
03F80000
07E00000
1FC00000
3F000000
78000000
40000000
ENDCHAR

STARTCHAR asterisk
ENCODING 42
SWIDTH 510 0
DWIDTH 26 0
BBX 25 23 2 12
BITMAP
00020000
00070000
00070000
000F0000
000F0000
381F0000
7E3E0000
3FFE0000
1FFE0000
0FFFE000
07FFFE00
03FFFE00
01FFFE00
03FFF000
07FF0000
0FFF0000
1FFF0000
1F9F0000
3E0F0000
180F8000
00078000
00038000
00038000
ENDCHAR

STARTCHAR plus
ENCODING 43
SWIDTH 667 0
DWIDTH 33 0
BBX 31 27 1 3
BITMAP
0007C000
0007C000
0007C000
0007C000
0007C000
0007C000
0007C000
0007C000
0007C000
0007C000
0007C000
3FFFFFF8
3FFFFFF8
3FFFFFF8
3FFFFFF8
3FFFFFF8
0007C000
0007C000
0007C000
0007C000
0007C000
0007C000
0007C000
0007C000
0007C000
0007C000
0007C000
ENDCHAR

STARTCHAR comma
ENCODING 44
SWIDTH 365 0
DWIDTH 18 0
BBX 15 17 -2 -10
BITMAP
01E0
03F8
07F8
07FC
07FC
07FC
03FC
01FC
00F8
00F8
00F0
01F0
03E0
07C0
3F00
3C00
7000
ENDCHAR

STARTCHAR minus
ENCODING 45
SWIDTH 667 0
DWIDTH 33 0
BBX 30 5 2 14
BITMAP
7FFFFFF0
7FFFFFF0
7FFFFFF0
7FFFFFF0
7FFFFFF0
ENDCHAR

STARTCHAR period
ENCODING 46
SWIDTH 292 0
DWIDTH 15 0
BBX 12 8 0 -1
BITMAP
0F00
1F80
3FC0
3FC0
3FC0
3FC0
1F80
0F00
ENDCHAR

STARTCHAR slash
ENCODING 47
SWIDTH 281 0
DWIDTH 14 0
BBX 28 35 -6 -1
BITMAP
000001E0
000001C0
00000380
00000780
00000700
00000E00
00001E00
00001C00
00003C00
00003800
00007000
0000F000
0000E000
0001C000
0001C000
00038000
00078000
00070000
000E0000
001E0000
001C0000
003C0000
00380000
00700000
00F00000
00E00000
01C00000
03C00000
03800000
07800000
07000000
0E000000
1E000000
1C000000
3C000000
ENDCHAR

STARTCHAR zero
ENCODING 48
SWIDTH 542 0
DWIDTH 27 0
BBX 28 35 1 -1
BITMAP
0003F000
000FFC00
003F1E00
007E1F00
00FC0F80
00FC0F80
01F80F80
03F80FC0
03F80FC0
07F00FC0
07F00FC0
0FF01FC0
0FE01FC0
0FE01FC0
0FE01FC0
1FE01FC0
1FC03F80
1FC03F80
1FC03F80
3FC03F80
3F807F80
3F807F00
3F807F00
3F80FF00
3F00FE00
3F00FE00
3F00FC00
1F01FC00
1F01F800
1F03F000
0F03F000
0F87E000
07CFC000
03FF0000
00FC0000
ENDCHAR

STARTCHAR one
ENCODING 49
SWIDTH 542 0
DWIDTH 27 0
BBX 23 34 2 0
BITMAP
00007C
0000F8
0001F8
000FF8
00FFF8
01FFF0
01FFF0
0007F0
0007F0
000FE0
000FE0
000FE0
000FE0
001FC0
001FC0
001FC0
003F80
003F80
003F80
003F80
007F00
007F00
007F00
007F00
00FE00
00FE00
00FE00
01FE00
01FE00
03FE00
07FF00
1FFFC0
3FFFC0
3FFFC0
ENDCHAR

STARTCHAR two
ENCODING 50
SWIDTH 542 0
DWIDTH 27 0
BBX 31 34 -3 0
BITMAP
0000FF00
0007FFC0
000FFFE0
003FFFF0
007C1FF8
00E007F8
00C003FC
000003FC
000003FC
000003FC
000003F8
000003F8
000003F8
000007F0
000007E0
00000FC0
00001F80
00003F00
00007E00
0000F800
0001F000
0003C000
00078000
001F0000
003C0000
00780000
00E000E0
01C000C0
03FFFFC0
07FFFFC0
0FFFFFC0
1FFFFFC0
3FFFFF80
3FFFFF80
ENDCHAR

STARTCHAR three
ENCODING 51
SWIDTH 542 0
DWIDTH 27 0
BBX 30 35 -2 -1
BITMAP
00003F80
0001FFE0
0007FFF0
000FFFF0
001F07F8
001C03F8
001001F8
000001F8
000001F8
000001F0
000003E0
000003C0
00000780
00001F00
00007C00
000FFE00
001FFF00
0001FF80
00007F80
00003FC0
00001FC0
00001FC0
00001FC0
00001FC0
00001FC0
00001F80
00001F80
00003F00
00003F00
00007E00
3800FC00
7E01F800
7F87E000
7FFFC000
0FFE0000
ENDCHAR

STARTCHAR four
ENCODING 52
SWIDTH 542 0
DWIDTH 27 0
BBX 29 35 0 -1
BITMAP
00000FE0
00001FE0
00003FC0
00007FC0
0000FFC0
0001DFC0
0003BF80
0007BF80
000F3F80
001E3F80
001C7F00
00387F00
00707F00
00E07F00
01C0FE00
0380FE00
0700FE00
0E01FE00
1C01FC00
3801FC00
3FFFFFE0
3FFFFFE0
3FFFFFC0
7FFFFFC0
0003F800
0007F000
0007F000
0007F000
0007F000
000FE000
000FE000
000FE000
000FE000
001FC000
001FC000
ENDCHAR

STARTCHAR five
ENCODING 53
SWIDTH 542 0
DWIDTH 27 0
BBX 31 36 -1 -1
BITMAP
00000018
00000038
0007FFF0
0007FFF0
000FFFE0
000FFFE0
000FFFE0
001C0000
00180000
00380000
00300000
003F0000
007FE000
007FF000
00FFF800
00FFFE00
00FFFE00
007FFF00
0003FF00
0000FF80
00007F80
00003F80
00001F80
00001F80
00000F80
00000F80
00000F80
00000F00
00000F00
00001E00
38003C00
3E007800
7F80F000
7FFFE000
3FFF0000
0FF80000
ENDCHAR

STARTCHAR six
ENCODING 54
SWIDTH 542 0
DWIDTH 27 0
BBX 31 35 1 -1
BITMAP
000003F0
00003FF8
0000FF80
0003FC00
000FF000
001FC000
007F8000
00FF0000
01FE0000
01FC0000
03F80000
07F80000
07F00000
0FF7F000
0FFFF800
1FFFFC00
1FF0FE00
1FC07F00
3FC03F00
3FC03F00
3F803F80
3F803F80
3F803F80
3F803F80
3F003F80
3F007F00
3F007F00
3F007F00
1F00FE00
1F00FE00
0F81FC00
0F81F800
07C7F000
01FFC000
00FF0000
ENDCHAR

STARTCHAR seven
ENCODING 55
SWIDTH 542 0
DWIDTH 27 0
BBX 27 34 4 -1
BITMAP
07FFFF80
07FFFF80
0FFFFF00
0FFFFF00
1FFFFE00
1FFFFC00
1C001C00
38003800
30007800
00007000
0000F000
0000E000
0001C000
0001C000
00038000
00038000
00070000
000F0000
000E0000
001E0000
001C0000
00380000
00380000
00700000
00F00000
00E00000
01E00000
01C00000
03800000
03800000
07000000
07000000
0E000000
1E000000
ENDCHAR

STARTCHAR eight
ENCODING 56
SWIDTH 542 0
DWIDTH 27 0
BBX 30 35 0 -1
BITMAP
0003FC00
000FFF80
003F0FC0
007C03E0
007801E0
00F800F0
00F800F0
00F800F0
01FC00F0
01FC01F0
00FE01E0
00FF03E0
00FF87C0
007F8F00
007FFE00
003FF800
001FF000
003FF800
00FFF800
03F3FC00
0FC3FE00
1F81FE00
1F00FF00
3E007F00
3E007F00
3C003F00
3C003F00
3C003F00
3C003E00
3C007E00
1E007C00
0F00F800
0783F000
03FFC000
00FF0000
ENDCHAR

STARTCHAR nine
ENCODING 57
SWIDTH 542 0
DWIDTH 27 0
BBX 31 35 -2 -1
BITMAP
0001FE00
0007FF80
001FC7C0
003F03E0
007F01F0
00FE01F0
00FE01F0
01FC01F8
01FC01F8
03FC01F8
03F801F8
03F803F8
03F803F8
03F803F8
01F803F8
01F807F8
01FC07F8
00FE1FF0
007FFFF0
003FFFF0
001FDFE0
00001FE0
00003FC0
00003F80
00007F80
00007F00
0000FE00
0001FC00
0003F800
000FF000
001FE000
00FF8000
0FFE0000
3FF00000
1F800000
ENDCHAR

STARTCHAR colon
ENCODING 58
SWIDTH 365 0
DWIDTH 18 0
BBX 17 23 1 -1
BITMAP
007800
00FC00
01FE00
01FE00
01FE00
01FE00
00FC00
007800
000000
000000
000000
000000
000000
000000
000000
0F0000
1F8000
3FC000
3FC000
3FC000
3FC000
1F8000
0F0000
ENDCHAR

STARTCHAR semicolon
ENCODING 59
SWIDTH 365 0
DWIDTH 18 0
BBX 20 32 -2 -10
BITMAP
000F00
001F80
003FC0
003FC0
003FC0
003FC0
001F80
000F00
000000
000000
000000
000000
000000
000000
000000
00C000
03F000
03F800
07F800
07FC00
07FC00
03FC00
01FC00
00F800
00F800
00F000
00F000
01E000
07C000
1F8000
3E0000
780000
ENDCHAR

STARTCHAR less
ENCODING 60
SWIDTH 667 0
DWIDTH 33 0
BBX 30 27 2 3
BITMAP
00000010
000000F0
000003F0
00000FF0
00007FF0
0001FFF0
000FFF80
003FFE00
00FFF000
07FFC000
1FFF0000
7FF80000
7FE00000
7F000000
7FE00000
7FF80000
1FFF0000
07FFC000
01FFF000
003FFE00
000FFF80
0001FFF0
00007FF0
00001FF0
000003F0
000000F0
00000010
ENDCHAR

STARTCHAR equal
ENCODING 61
SWIDTH 667 0
DWIDTH 33 0
BBX 30 17 2 8
BITMAP
7FFFFFF0
7FFFFFF0
7FFFFFF0
7FFFFFF0
7FFFFFF0
00000000
00000000
00000000
00000000
00000000
00000000
00000000
7FFFFFF0
7FFFFFF0
7FFFFFF0
7FFFFFF0
7FFFFFF0
ENDCHAR

STARTCHAR greater
ENCODING 62
SWIDTH 667 0
DWIDTH 33 0
BBX 30 27 2 3
BITMAP
60000000
78000000
7E000000
7FC00000
7FF00000
7FFE0000
0FFF8000
03FFE000
007FFC00
001FFF00
0003FFE0
0000FFF0
00001FF0
000007F0
00001FF0
0000FFF0
0003FFE0
001FFF00
007FFC00
03FFE000
0FFF8000
7FFE0000
7FF00000
7FC00000
7E000000
78000000
60000000
ENDCHAR

STARTCHAR question
ENCODING 63
SWIDTH 510 0
DWIDTH 26 0
BBX 24 36 1 -1
BITMAP
001F00
003FC0
007FE0
007FF0
007FF8
007FFC
003E3C
00001C
00000E
00000E
00000E
00000E
00001E
00003E
00007C
00FFFC
00FFFC
00FFF8
01FFF8
01FFF0
01FFE0
01FF80
03FC00
038000
038000
000000
000000
000000
0F0000
1F8000
3FC000
3FC000
3FC000
3FC000
1F8000
0F0000
ENDCHAR

STARTCHAR at
ENCODING 64
SWIDTH 833 0
DWIDTH 42 0
BBX 45 43 -2 -10
BITMAP
00000FF00000
0000FFFF0000
0003E003C000
000F0000E000
001C00003000
007800001C00
00F000000C00
01E000000600
03C000000300
038000000300
070007000100
0E001FDF8180
0E003C5F0180
1C00787F0080
1C00F87F0080
1C01F07E0080
1803F07E0080
3803E07E0080
3807E07E0080
3807C07C0080
3007C0FC0180
300FC0FC0100
300FC1F80100
300F81F80300
301F83F80200
301F83F00600
381F85F00400
381F8FF00C00
181FDBF01800
181FF3F03060
1C1FF1F0C040
0C0FE1FF80C0
0C07807C0080
060000000180
070000000300
030000000200
018000000400
00C000001800
007000003000
00380000E000
000E00038000
0003E03E0000
00007FF00000
ENDCHAR

STARTCHAR A
ENCODING 65
SWIDTH 708 0
DWIDTH 35 0
BBX 38 35 -4 0
BITMAP
00000007F8
00000007F8
0000000FF8
0000001FF8
0000003FF0
0000007FF0
000000FFF0
000001EFF0
000001CFF0
0000038FF0
0000070FF0
00000E1FF0
00001C1FF0
0000381FF0
0000781FE0
0000701FE0
0000E01FE0
0001C01FE0
0003801FE0
0007801FE0
0007FFFFE0
000FFFFFE0
001FFFFFE0
003C003FC0
0038003FC0
0070003FC0
00F0003FC0
01E0003FC0
01E0003FC0
03E0007FC0
07E0007FC0
0FE000FFE0
3FF803FFF0
3FF807FFF8
7FF807FFF0
ENDCHAR

STARTCHAR B
ENCODING 66
SWIDTH 750 0
DWIDTH 38 0
BBX 41 34 -1 0
BITMAP
003FFFFF8000
003FFFFFF000
001FFC1FF800
000FFC07FC00
000FF803FC00
0007F803FE00
000FF801FE00
000FF001FE00
000FF001FE00
000FF001FE00
001FF003FE00
001FE003FC00
001FE007F800
003FE00FF000
003FC07FE000
003FFFFF8000
003FFFFE0000
007F80FF8000
007F803FC000
007F801FE000
00FF800FF000
00FF000FF000
00FF000FF800
00FF000FF800
01FE000FF800
01FE000FF800
01FE000FF800
03FE001FF000
03FE003FF000
07FE003FE000
0FFF00FFC000
3FFF83FF8000
3FFFFFFE0000
7FFFFFF00000
ENDCHAR

STARTCHAR C
ENCODING 67
SWIDTH 750 0
DWIDTH 38 0
BBX 39 36 3 -1
BITMAP
00001FFC00
0000FFFF80
0007FC0FF0
000FE003F8
003FC001F8
007F8001F8
00FF0000F8
01FE0000F8
03FC000070
07F8000070
07F8000070
0FF0000000
0FF0000000
1FF0000000
1FE0000000
3FE0000000
3FE0000000
3FC0000000
3FC0000000
7FC0000000
7FC0000000
7FC0000000
7FC0000000
7FC0000000
7FC0000780
3FC0000780
3FC0000F80
3FE0001F00
1FE0001F00
1FF0003F00
0FF0007F00
07F800FE00
03FE03FC00
00FFFFF000
003FFF8000
0007F80000
ENDCHAR

STARTCHAR D
ENCODING 68
SWIDTH 802 0
DWIDTH 40 0
BBX 41 34 0 0
BITMAP
007FFFF00000
007FFFFF0000
007FFFFFC000
001FF81FE000
000FF80FF000
000FF807F800
000FF803FC00
000FF003FC00
000FF001FE00
001FF001FE00
001FE001FE00
001FE001FE00
001FE001FF00
003FE001FF00
003FC001FF00
003FC001FF00
007FC001FF00
007F8001FF00
007F8001FF00
007F8001FE00
00FF8003FE00
00FF0003FE00
00FF0003FE00
01FF0007FC00
01FF0007FC00
01FE000FF800
01FE000FF000
03FE001FF000
03FE003FE000
07FE00FFC000
0FFF01FF8000
3FFFFFFE0000
3FFFFFF80000
7FFFFF800000
ENDCHAR

STARTCHAR E
ENCODING 69
SWIDTH 740 0
DWIDTH 37 0
BBX 42 34 -1 0
BITMAP
007FFFFFFF00
007FFFFFFF00
003FFC00FE00
001FF8003E00
000FF8003E00
000FF8001E00
000FF0001E00
000FF0000C00
001FF0000000
001FF0000000
001FE0000000
001FE001C000
003FE0038000
003FC0078000
003FC03F8000
003FFFFF0000
007FFFFF0000
007F803F0000
007F801F0000
00FF800E0000
00FF000E0000
00FF000E0000
00FF00000000
01FF00000000
01FE00000000
01FE00007000
03FE0000F000
03FE0001E000
03FE0003E000
07FE000FE000
0FFE001FC000
3FFF80FFC000
7FFFFFFFC000
7FFFFFFF8000
ENDCHAR

STARTCHAR F
ENCODING 70
SWIDTH 667 0
DWIDTH 33 0
BBX 40 34 -1 0
BITMAP
007FFFFFFC
007FFFFFFC
003FFC03F8
001FF800F8
000FF80078
000FF80078
000FF00078
000FF00030
000FF00000
001FF00000
001FE00000
001FE00700
003FE00F00
003FE01F00
003FC0FE00
003FFFFE00
007FFFFE00
007F80FE00
007F807C00
007F803C00
00FF801C00
00FF001C00
00FF000000
01FF000000
01FF000000
01FE000000
01FE000000
03FE000000
03FE000000
07FE000000
0FFF000000
3FFF800000
3FFFC00000
7FFFC00000
ENDCHAR

STARTCHAR G
ENCODING 71
SWIDTH 833 0
DWIDTH 42 0
BBX 42 36 3 -1
BITMAP
00001FFF8000
0000FFFFF000
0003FF07FC00
000FF801FE00
003FE000FE00
007FC0007E00
00FF00003E00
01FE00001C00
03FE00001C00
07FC00001C00
0FF800001C00
0FF800000000
1FF000000000
1FF000000000
3FE000000000
3FE000000000
3FE000000000
3FC000FFFF00
7FC000FFFF00
7FC001FFFF00
7FC0003FF800
7FC0003FF000
7FC0001FE000
7FC0003FE000
7FC0003FE000
3FC0003FC000
3FC0003FC000
3FE0007FC000
1FE0007FC000
0FF0007F8000
0FF0007F8000
07F800FF8000
03FC00FF0000
00FF07FF0000
003FFFFF0000
0007FFE00000
ENDCHAR

STARTCHAR H
ENCODING 72
SWIDTH 844 0
DWIDTH 42 0
BBX 48 34 -1 0
BITMAP
003FFF80FFFE
003FFF81FFFC
003FFE00FFF8
001FFC007FE0
000FF8003FE0
000FF8003FC0
000FF0007FC0
000FF0007FC0
001FF0007F80
001FF0007F80
001FE000FF80
001FE000FF00
003FE000FF00
003FE000FF00
003FC001FF00
003FFFFFFE00
007FFFFFFE00
007FFFFFFE00
007F8003FE00
00FF8003FC00
00FF8003FC00
00FF0007FC00
00FF0007F800
01FF0007F800
01FE000FF800
01FE000FF800
01FE000FF000
03FE000FF000
03FE001FF000
07FE001FF000
0FFE003FF000
1FFF80FFFC00
3FFF81FFFC00
3FFF01FFFC00
ENDCHAR

STARTCHAR I
ENCODING 73
SWIDTH 417 0
DWIDTH 21 0
BBX 27 34 -1 0
BITMAP
003FFF80
003FFF80
001FFF00
000FFE00
000FFC00
000FF800
000FF800
000FF000
000FF000
001FF000
001FE000
001FE000
003FE000
003FE000
003FC000
003FC000
007FC000
007F8000
007F8000
007F8000
00FF8000
00FF0000
00FF0000
01FF0000
01FE0000
01FE0000
01FE0000
03FE0000
03FE0000
07FE0000
0FFF0000
1FFF8000
3FFFC000
7FFFC000
ENDCHAR

STARTCHAR J
ENCODING 74
SWIDTH 396 0
DWIDTH 20 0
BBX 39 44 -12 -10
BITMAP
00000FFFF8
00001FFFF8
000007FFF0
000003FFC0
000001FF80
000001FF00
000001FF00
000001FE00
000003FE00
000003FE00
000003FC00
000003FC00
000007FC00
000007FC00
000007F800
000007F800
00000FF800
00000FF000
00000FF000
00001FF000
00001FF000
00001FE000
00001FE000
00003FE000
00003FE000
00003FC000
00003FC000
00007FC000
00007F8000
00007F8000
00007F8000
0000FF8000
0000FF0000
0000FF0000
0001FF0000
0E01FE0000
3F01FE0000
3F01FC0000
7F83F80000
7F87F80000
3F87F00000
3FFFC00000
1FFF000000
03F0000000
ENDCHAR

STARTCHAR K
ENCODING 75
SWIDTH 740 0
DWIDTH 37 0
BBX 45 34 -1 0
BITMAP
007FFFC0FFF0
007FFF80FFE0
003FFF007FE0
001FFE003F80
000FFC003E00
000FF8007C00
000FF800F000
000FF001E000
001FF003C000
001FF0078000
001FE01E0000
001FE03C0000
003FE0F00000
003FC1E00000
003FC7C00000
007FDFE00000
007FFFE00000
007FBFF00000
007F9FF00000
00FF9FF80000
00FF0FF80000
00FF07FC0000
00FF07FE0000
01FF03FE0000
01FE03FF0000
01FE01FF0000
03FE01FF8000
03FE00FFC000
03FE007FC000
07FE007FE000
0FFE003FF000
1FFF803FF800
3FFFC01FFC00
3FFFC01FFC00
ENDCHAR

STARTCHAR L
ENCODING 76
SWIDTH 667 0
DWIDTH 33 0
BBX 36 34 -1 0
BITMAP
003FFFC000
003FFFC000
003FFF0000
001FFC0000
000FFC0000
000FF80000
000FF80000
000FF00000
000FF00000
001FF00000
001FE00000
001FE00000
003FE00000
003FC00000
003FC00000
003FC00000
007FC00000
007F800000
007F800000
00FF800000
00FF800000
00FF000000
00FF000000
01FF000000
01FE000000
01FE000000
01FE0001C0
03FE0003C0
03FC000F80
07FC001F80
0FFE007F00
1FFF83FF00
3FFFFFFE00
3FFFFFFE00
ENDCHAR

STARTCHAR M
ENCODING 77
SWIDTH 979 0
DWIDTH 49 0
BBX 55 34 -2 0
BITMAP
0007FF80007FF8
0007FF80007FF8
0007FF8000FFF0
0001FF8000FFC0
0001FF8001FFC0
0001FF8001FF80
0001FF8003FF80
0001FF8007FF00
00037FC007FF00
00037FC00EFF00
00077FC01CFF00
00067FC01CFF00
00067FC038FF00
000C3FC071FF00
000C3FC071FE00
001C3FE0E1FE00
00183FE1C1FE00
00383FE1C1FE00
00303FE381FE00
00301FE701FE00
00701FE601FE00
00601FFE03FE00
00E01FFC03FC00
00C01FFC03FC00
01C01FF803FC00
01C00FF003FC00
01800FF003FC00
03800FE003FC00
03800FC007FC00
07800FC007FC00
0FC00F800FFE00
1FE00F803FFF00
3FF00F007FFF00
7FF00E007FFF00
ENDCHAR

STARTCHAR N
ENCODING 78
SWIDTH 812 0
DWIDTH 41 0
BBX 48 34 -2 0
BITMAP
00FFF0001FFC
00FFF0001FFC
003FF8000FF8
001FF80003F0
000FFC0003E0
0007FE0003C0
0007FE000380
000FFF000380
000FFF000380
000DFF800300
000CFF800300
001C7FC00700
001C7FC00700
00183FE00600
00183FF00600
00381FF00E00
00381FF80C00
00300FF80C00
00300FFC0C00
007007FC1C00
007007FE1800
006003FE1800
006001FF3800
00E001FFB800
00E000FFB000
00C000FFF000
01C0007FF000
01C0007FE000
01C0003FE000
03C0003FF000
07E0001FF000
0FF0000FF800
3FFC000FF800
3FFC0007FC00
ENDCHAR

STARTCHAR O
ENCODING 79
SWIDTH 854 0
DWIDTH 43 0
BBX 40 36 3 -1
BITMAP
00000FE000
0000FFFC00
0003FFFF00
000FF01FC0
003FC00FE0
007F8007F0
00FF0007F8
01FE0003F8
03FE0003FC
07FC0003FC
07F80003FE
0FF80003FE
1FF80003FE
1FF00003FE
1FF00003FE
3FE00003FE
3FE00003FE
3FE00007FE
7FE00007FC
7FC00007FC
7FC00007FC
7FC0000FFC
7FC0000FF8
7FC0000FF8
7FC0001FF0
3FC0001FF0
3FC0003FE0
3FC0003FC0
1FE0007F80
1FE000FF00
0FF001FE00
07F803FC00
03FC0FF000
00FFFFE000
003FFF0000
0007F00000
ENDCHAR

STARTCHAR P
ENCODING 80
SWIDTH 677 0
DWIDTH 34 0
BBX 40 34 -2 0
BITMAP
003FFFFE00
007FFFFFE0
007FFFFFF0
000FFC0FF8
000FFC07FC
000FF803FC
000FF803FE
000FF803FE
000FF803FE
000FF003FE
000FF003FE
001FF007FC
001FE007FC
001FE00FF8
003FE01FF0
003FE03FE0
003FCFFFC0
003FCFFF00
007FCFF800
007F800000
007F800000
00FF800000
00FF800000
00FF000000
00FF000000
01FF000000
01FF000000
01FE000000
03FE000000
07FF000000
0FFF000000
1FFFC00000
3FFFE00000
3FFFE00000
ENDCHAR

STARTCHAR Q
ENCODING 81
SWIDTH 854 0
DWIDTH 43 0
BBX 40 44 3 -9
BITMAP
00000FE000
0000FFFE00
0003FFFF00
000FF01FC0
003FC00FE0
007F8007F0
00FF0007F8
01FE0003F8
03FE0003FC
07FC0003FC
07F80003FC
0FF80003FE
1FF00003FE
1FF00003FE
1FF00003FE
3FE00003FE
3FE00003FE
3FE00007FE
7FE00007FC
7FC00007FC
7FC00007FC
7FC0000FF8
7FC0000FF8
7FC0000FF8
7FC0001FF0
3FC0001FE0
3FC0003FE0
3FC0003FC0
1FE0007F80
0FE000FF00
0FF001FE00
07F803FC00
03FE0FF000
00FFFFC000
007FFF0000
003FF00000
001FFC0000
000FFFC000
0007FFFE00
0001FFFFF8
0000FFFFF0
00003FFFE0
00000FFFC0
000001FF80
ENDCHAR

STARTCHAR R
ENCODING 82
SWIDTH 781 0
DWIDTH 39 0
BBX 43 34 -1 0
BITMAP
003FFFFFE000
007FFFFFF800
001FFC0FFE00
000FF803FE00
000FF801FF00
000FF801FF80
000FF800FF80
000FF000FF80
000FF000FF80
001FF000FF80
001FE000FF80
001FE001FF00
001FE001FF00
003FE003FE00
003FC007FC00
003FC03FF800
007FFFFFE000
007FFFFE0000
007F83FE0000
007F81FE0000
00FF81FE0000
00FF01FF0000
00FF00FF0000
00FF00FF0000
01FF00FF8000
01FE007F8000
01FE007F8000
03FE007FC000
03FC003FC000
07FC003FE000
0FFE003FF000
3FFF001FF800
7FFF801FF800
7FFF801FF800
ENDCHAR

STARTCHAR S
ENCODING 83
SWIDTH 625 0
DWIDTH 31 0
BBX 37 36 -2 -1
BITMAP
00003FE000
0001FFFE00
0003FFFF80
0007F03FE0
000FE00FE0
001FC007E0
001FC003E0
001FC003C0
003FC003C0
003FE003C0
003FE00000
003FF00000
001FF80000
001FFE0000
000FFF0000
0007FF8000
0007FFC000
0003FFE000
0001FFF000
0000FFF000
00007FF800
00003FFC00
00000FFC00
000007FE00
000007FE00
1E0003FE00
1E0001FE00
1E0001FE00
1F0001FE00
3F0001FC00
3F8003FC00
3FC003F800
3FE00FF000
0FFC3FE000
03FFFF8000
003FFE0000
ENDCHAR

STARTCHAR T
ENCODING 84
SWIDTH 729 0
DWIDTH 36 0
BBX 40 34 3 0
BITMAP
0FFFFFFFFE
0FFFFFFFFC
0FF07F81FC
1F807F80FC
1F00FF807C
1E00FF0078
3C00FF0038
3801FF0038
0001FF0000
0001FE0000
0001FE0000
0003FE0000
0003FE0000
0003FC0000
0003FC0000
0007FC0000
0007F80000
0007F80000
000FF80000
000FF80000
000FF00000
000FF00000
001FF00000
001FE00000
001FE00000
001FE00000
003FE00000
003FC00000
007FC00000
007FE00000
00FFE00000
03FFF80000
0FFFFC0000
0FFFFC0000
ENDCHAR

STARTCHAR U
ENCODING 85
SWIDTH 792 0
DWIDTH 40 0
BBX 41 35 4 -1
BITMAP
1FFFF00FFF00
1FFFF00FFF00
0FFFE007FE00
07FF8003F800
03FF0001F000
03FF0001E000
03FE0000E000
03FE0000E000
03FC0001C000
03FC0001C000
07FC0001C000
07F800018000
07F800018000
07F800038000
0FF800038000
0FF000038000
0FF000030000
1FF000070000
1FF000070000
1FE000070000
1FE000060000
3FE0000E0000
3FE0000E0000
3FC0000E0000
3FC0000C0000
3FC0001C0000
3FC000180000
3FC000380000
1FE000700000
1FF000F00000
0FF801E00000
07FE0FC00000
03FFFF800000
01FFFE000000
003FF8000000
ENDCHAR

STARTCHAR V
ENCODING 86
SWIDTH 719 0
DWIDTH 36 0
BBX 37 35 6 -1
BITMAP
3FFF807FF0
3FFF807FF0
3FFF007FE0
1FFC003FC0
0FF8001F00
0FF8001F00
07F8001E00
07F8001C00
07F8003800
07F8003000
0FF8007000
0FF800E000
0FF800C000
0FF001C000
0FF0038000
0FF0070000
0FF0060000
0FF00E0000
0FF01C0000
0FF0180000
0FF0300000
0FF0700000
0FF0E00000
0FF1C00000
0FF1800000
0FF3800000
0FF7000000
0FFE000000
0FFC000000
0FF8000000
0FF8000000
0FF0000000
0FE0000000
0FC0000000
0FC0000000
ENDCHAR

STARTCHAR W
ENCODING 87
SWIDTH 969 0
DWIDTH 48 0
BBX 52 35 4 -1
BITMAP
3FFE0FFFC1FFC0
3FFE0FFFC1FFC0
3FFC0FFF80FF80
1FF807FE007F00
0FF803FE007E00
0FF003FE007C00
0FF003FE007800
0FF001FE007000
0FF001FE007000
0FF001FE00E000
0FF801FE00E000
0FF803FE01C000
0FF803FE01C000
07F807FE038000
07F807FE030000
07F80FFE070000
07F80DFE060000
07F819FE0E0000
07F839FE1C0000
07F831FE1C0000
07F871FE380000
07F8E1FE300000
07F8C1FE700000
07F9C1FE600000
07FB81FEE00000
07FB01FFC00000
07FF01FFC00000
07FE01FF800000
07FC00FF800000
07FC00FF000000
07F800FE000000
07F800FE000000
07F000FC000000
07E000FC000000
07E000F8000000
ENDCHAR

STARTCHAR X
ENCODING 88
SWIDTH 771 0
DWIDTH 39 0
BBX 45 34 -2 0
BITMAP
003FFFE0FFF0
003FFFE0FFF0
001FFF807FE0
0007FE003F80
0003FE003F00
0003FE003E00
0001FF003800
0001FF007000
0000FF80E000
0000FF81C000
00007FC78000
00007FCF0000
00003FFC0000
00003FF80000
00001FF00000
00001FF00000
00000FF80000
00000FF80000
00000FFC0000
00001FFC0000
00003BFE0000
000073FE0000
0001E1FF0000
000381FF0000
000700FF8000
000E00FF8000
001C007FC000
0078007FC000
00F0003FE000
01F8003FF000
07F8007FF000
1FFC00FFFC00
3FFE01FFFC00
3FFC01FFFC00
ENDCHAR

STARTCHAR Y
ENCODING 89
SWIDTH 677 0
DWIDTH 34 0
BBX 36 34 4 0
BITMAP
7FFF00FFC0
7FFF00FFC0
3FFE00FFC0
1FF8003F00
0FF8003E00
0FF8003C00
0FF8003C00
07F8007800
07F800F000
07FC00E000
03FC01C000
03FC03C000
03FE078000
01FE070000
01FE0E0000
01FF1C0000
00FF1C0000
00FF380000
00FF700000
00FFE00000
007FC00000
007FC00000
007F800000
007F800000
00FF800000
00FF800000
00FF000000
01FF000000
01FF000000
03FF000000
07FF800000
1FFFE00000
3FFFE00000
3FFFE00000
ENDCHAR

STARTCHAR Z
ENCODING 90
SWIDTH 687 0
DWIDTH 34 0
BBX 39 34 -1 0
BITMAP
001FFFFFFC
001FFFFFFC
003FFFFFFC
003F003FF8
003C007FF0
007800FFE0
007000FFC0
007001FF80
000003FF80
000007FF00
00000FFE00
00001FFC00
00003FF800
00003FF000
00007FE000
0000FFE000
0001FFC000
0003FF8000
0007FF0000
000FFE0000
000FFC0000
001FF80000
003FF80000
007FF00000
00FFE00000
01FFC001C0
03FF800380
03FF000780
07FF000F80
0FFE001F00
1FFC007F00
3FF807FF00
3FFFFFFE00
3FFFFFFE00
ENDCHAR

STARTCHAR bracketleft
ENCODING 91
SWIDTH 385 0
DWIDTH 19 0
BBX 29 43 -2 -9
BITMAP
0001FFE0
0001FFE0
0003FF00
0003FC00
0003F800
0003F000
0007F000
0007F000
0007E000
000FE000
000FE000
000FE000
001FC000
001FC000
001FC000
003F8000
003F8000
003F8000
003F0000
007F0000
007F0000
007E0000
00FE0000
00FE0000
00FE0000
01FC0000
01FC0000
01FC0000
03F80000
03F80000
03F80000
07F00000
07F00000
07F00000
07E00000
0FE00000
0FE00000
0FE00000
1FC00000
1FE00000
1FF00000
3FFC0000
3FFC0000
ENDCHAR

STARTCHAR backslash
ENCODING 92
SWIDTH 281 0
DWIDTH 14 0
BBX 10 35 2 -1
BITMAP
3800
3800
3800
3800
3800
3800
3800
1C00
1C00
1C00
1C00
1C00
1C00
1C00
1C00
1C00
1C00
0E00
0E00
0E00
0E00
0E00
0E00
0E00
0E00
0E00
0E00
0E00
0700
0700
0700
0700
0700
0700
0700
ENDCHAR

STARTCHAR bracketright
ENCODING 93
SWIDTH 385 0
DWIDTH 19 0
BBX 28 43 -6 -9
BITMAP
0001FFC0
0001FFC0
0000FFC0
00003F80
00003F80
00003F80
00003F80
00007F00
00007F00
00007F00
0000FE00
0000FE00
0000FE00
0001FC00
0001FC00
0001FC00
0001F800
0003F800
0003F800
0003F800
0007F000
0007F000
0007F000
000FE000
000FE000
000FE000
001FC000
001FC000
001FC000
001F8000
003F8000
003F8000
003F0000
007F0000
007F0000
007F0000
00FE0000
00FE0000
00FE0000
01FC0000
07FC0000
3FFC0000
3FF80000
ENDCHAR

STARTCHAR asciicircum
ENCODING 94
SWIDTH 573 0
DWIDTH 29 0
BBX 25 18 2 16
BITMAP
001C0000
001C0000
003E0000
003E0000
007F0000
00FF0000
00E78000
01E7C000
01C3C000
03C1E000
0381E000
0780F000
0F00F000
0F007800
1E003C00
1C003C00
3C001E00
38001E00
ENDCHAR

STARTCHAR underscore
ENCODING 95
SWIDTH 500 0
DWIDTH 25 0
BBX 29 3 -2 -10
BITMAP
3FFFFFE0
3FFFFFE0
3FFFFFE0
ENDCHAR

STARTCHAR quoteleft
ENCODING 96
SWIDTH 365 0
DWIDTH 18 0
BBX 15 15 7 20
BITMAP
0078
01F8
03E0
0780
0E00
1E00
1E00
3E00
3F00
3F80
3FC0
3FC0
1FC0
1F80
0700
ENDCHAR

STARTCHAR a
ENCODING 97
SWIDTH 594 0
DWIDTH 30 0
BBX 30 24 0 -1
BITMAP
0007F000
001FFCF0
007E3EF0
00FC1FE0
01F81FE0
03F01FE0
07E01FC0
07E01FC0
0FC01FC0
0FC01FC0
1FC01F80
1FC03F80
1F803F80
3F803F00
3F807F00
3F80FF00
3F80FE00
3FC1FE30
3FC3FE70
3FFFFEE0
1FFE7FE0
1FFC7FC0
0FF87F00
07E03E00
ENDCHAR

STARTCHAR b
ENCODING 98
SWIDTH 615 0
DWIDTH 31 0
BBX 30 36 1 -1
BITMAP
00038000
007F0000
07FF0000
0FFF0000
01FF0000
00FE0000
00FE0000
01FE0000
01FC0000
01FC0000
01FC0000
03F80000
03F80000
03F87E00
07F1FF80
07F7FFC0
07FFFFE0
0FFE1FE0
0FF80FF0
0FF007F0
1FE007F0
1FC007F0
1FC007F0
3FC007F0
3F800FF0
3F800FE0
3F801FE0
7F001FC0
7F003FC0
7F003F80
3F007F00
3F00FE00
1F81FC00
0FFFF000
03FFC000
007E0000
ENDCHAR

STARTCHAR c
ENCODING 99
SWIDTH 500 0
DWIDTH 25 0
BBX 26 24 1 -1
BITMAP
0003F000
003FFC00
00FFFE00
01FC3F00
03F03F00
07E03F00
0FC03F00
1FC01E00
1F800000
3F800000
3F000000
3F000000
7F000000
7F000000
7F000000
7F000000
7F800000
7F801E00
3FC03C00
3FF0F800
1FFFF000
1FFFC000
07FF8000
01FC0000
ENDCHAR

STARTCHAR d
ENCODING 100
SWIDTH 625 0
DWIDTH 31 0
BBX 34 36 1 -1
BITMAP
0000000700
000001FF00
000007FF00
00000FFF00
000000FE00
000000FE00
000000FE00
000000FC00
000001FC00
000001FC00
000001F800
000003F800
0003E3F800
001FFBF800
007FFFF000
00FC3FF000
01F81FF000
03F00FE000
07E00FE000
0FC00FE000
1FC00FC000
1F801FC000
3F801FC000
3F001FC000
3F003F8000
7F003F8000
7F003F8000
7F007F0000
7F00FF0000
7F00FF1C00
7F81FF3800
3FC7FE7000
3FFF7FE000
1FFE7FC000
1FF87F8000
07E03E0000
ENDCHAR

STARTCHAR e
ENCODING 101
SWIDTH 510 0
DWIDTH 26 0
BBX 26 23 -1 -1
BITMAP
0000F800
0007FE00
001FFF00
007E1F80
00F80F80
01F00F80
03F00F80
07E00F80
0FE01F00
0FC03E00
1FC0FC00
1FC7F800
3FFFE000
3FFF0000
3F800000
3F800000
3FC00700
3FC01E00
1FF07C00
1FFFF800
0FFFF000
07FFC000
00FE0000
ENDCHAR

STARTCHAR f
ENCODING 102
SWIDTH 333 0
DWIDTH 17 0
BBX 37 45 -10 -10
BITMAP
0000000F00
0000007FC0
000000FFE0
000001F7E0
000003E3E0
000007E3E0
000007E1C0
00000FC000
00000FC000
00001FC000
00001FC000
00003F8000
00003F8000
0003FFF800
0003FFF800
0003FFF000
00007F0000
0000FF0000
0000FE0000
0000FE0000
0000FE0000
0001FE0000
0001FC0000
0001FC0000
0001FC0000
0003F80000
0003F80000
0003F80000
0003F80000
0007F00000
0007F00000
0007F00000
0007E00000
000FE00000
000FE00000
000FC00000
001FC00000
001F800000
001F000000
3C1F000000
3E3E000000
7F3C000000
3FF8000000
3FF0000000
0F80000000
ENDCHAR

STARTCHAR g
ENCODING 103
SWIDTH 594 0
DWIDTH 30 0
BBX 36 33 -4 -10
BITMAP
0000FF87C0
0003FFFFC0
000FE3FFC0
001FC1F9C0
003F80F8C0
003F80FC00
007F00FC00
007F00FE00
007F00FE00
007F00FE00
007F01FC00
007F01FC00
003F83FC00
001FC7F800
000FFFF000
003FFFC000
00FC000000
01F0000000
03F0000000
03F8000000
03FFFF0000
03FFFFC000
03FFFFE000
01FFFFF000
01FFFFF000
0FFFFFF000
1F0007F000
3E0003E000
7E0003E000
7E0003C000
3F801F8000
1FFFFE0000
03FFF00000
ENDCHAR

STARTCHAR h
ENCODING 104
SWIDTH 625 0
DWIDTH 31 0
BBX 33 36 -1 -1
BITMAP
0000E00000
007FE00000
00FFE00000
00FFC00000
001FC00000
001FC00000
001FC00000
003F800000
003F800000
003F800000
007F000000
007F000000
007F00F000
007E07F800
00FE0FFC00
00FE3FFC00
00FC79FC00
01FCE1FC00
01FDC1F800
01F983F800
03FB83F800
03FF03F800
03FE07F000
07FC07F000
07FC07E000
07F80FE000
07F00FC000
0FF01FC000
0FE01FC600
0FE01F8E00
1FC03F9C00
1FC03FF800
1FC03FF000
3F803FE000
3F801FC000
00000E0000
ENDCHAR

STARTCHAR i
ENCODING 105
SWIDTH 333 0
DWIDTH 17 0
BBX 21 36 -1 -1
BITMAP
0001C0
0007E0
0007F0
000FF0
000FF0
0007E0
0007E0
000180
000000
000000
000000
000000
000000
00F800
03FC00
07FE00
0FFE00
1CFE00
38FE00
30FC00
01FC00
01FC00
03F800
03F800
03F000
07F000
07F000
0FE000
0FE000
0FC300
1FC600
1FFE00
1FFC00
1FF800
1FE000
078000
ENDCHAR

STARTCHAR j
ENCODING 106
SWIDTH 323 0
DWIDTH 16 0
BBX 29 45 -9 -10
BITMAP
00000180
000007E0
000007F0
00000FF0
00000FF0
000007E0
000007E0
00000000
00000000
00000000
00000000
00000000
00003C00
0001FE00
0003FF00
0007FF00
000E7F00
000C7F00
001C7F00
0000FE00
0000FE00
0000FE00
0000FE00
0001FC00
0001FC00
0001FC00
0001F800
0003F800
0003F800
0003F800
0007F000
0007F000
0007F000
0007E000
000FE000
000FE000
000FC000
001FC000
001F8000
1C1F8000
3E3F0000
3E3E0000
3FFC0000
3FF80000
0FC00000
ENDCHAR

STARTCHAR k
ENCODING 107
SWIDTH 625 0
DWIDTH 31 0
BBX 33 35 -1 -1
BITMAP
0001F00000
00FFE00000
00FFE00000
01FFE00000
001FC00000
001FC00000
001FC00000
003F800000
003F800000
003F800000
007F000000
007F000000
007F03F000
00FE1FFC00
00FE7FFC00
00FEFFFE00
01FDE1FE00
01FF80FE00
01FE00FE00
01FC00FC00
03F801FC00
03F803F800
03F807E000
07FFFFC000
07FFFE0000
07FFFF0000
0FE07F0000
0FE07F0000
0FE03F8000
1FC03F8600
1FC01FCE00
1FC01FFC00
3F800FF800
3F800FF000
000007C000
ENDCHAR

STARTCHAR l
ENCODING 108
SWIDTH 302 0
DWIDTH 15 0
BBX 19 36 0 -1
BITMAP
000380
01FF80
03FF00
07FF00
007F00
007F00
007E00
007E00
00FE00
00FC00
00FC00
01FC00
01FC00
01F800
03F800
03F800
03F000
07F000
07F000
07E000
0FE000
0FE000
0FC000
0FC000
1FC000
1F8000
1F8000
3F8000
3F8000
3F0C00
7F1800
7F3800
7FF000
7FE000
3FC000
1E0000
ENDCHAR

STARTCHAR m
ENCODING 109
SWIDTH 1000 0
DWIDTH 50 0
BBX 52 24 -1 -1
BITMAP
00780078003C00
01FC03FE01FE00
07FE0FFF03FF00
0FFE1FFF07FF00
1CFE3C7F0E3F00
18FE707F183F00
30FEE07F303F00
01FCC07F607F00
01FD80FEE07E00
01FF00FFC0FE00
01FF00FF80FE00
03FE01FF00FC00
03FC01FF01FC00
03FC01FE01FC00
07F801FE01F800
07F003FC03F800
07F003FC03F8E0
0FE003F803F1C0
0FE007F803F380
0FE007F007F780
1FC007F007FF00
1FC00FE003FC00
1FC00FE003F800
0000000000C000
ENDCHAR

STARTCHAR n
ENCODING 110
SWIDTH 635 0
DWIDTH 32 0
BBX 34 23 -1 -1
BITMAP
007C01F800
01FE07FC00
07FE1FFE00
0FFE3CFE00
0CFE70FE00
18FEE0FE00
38FCC0FC00
01FD81FC00
01FF81FC00
01FB03F800
03FE03F800
03FC03F000
03FC07F000
07F807F000
07F80FE000
07F00FE000
0FF01FE300
0FE01FC600
0FE01FFC00
1FC01FF800
1FC01FF000
1F800FE000
0000030000
ENDCHAR

STARTCHAR o
ENCODING 111
SWIDTH 573 0
DWIDTH 29 0
BBX 28 23 0 -1
BITMAP
001FF000
007FFE00
01FC3F00
03F81F80
07F00FC0
0FE00FC0
1FC00FC0
1FC00FE0
3F800FE0
3F800FE0
7F800FE0
7F801FE0
7F001FE0
7F001FC0
7F001FC0
7F003F80
3F003F80
3F007F00
1F80FE00
0F80FC00
0FE3F800
03FFE000
00FF8000
ENDCHAR

STARTCHAR p
ENCODING 112
SWIDTH 615 0
DWIDTH 31 0
BBX 37 37 -6 -9
BITMAP
0000020000
0000FE0000
0001FC0000
0001FC0000
0001FC0000
0001FFF800
0003FFFE00
0003FFFF80
000FF87F80
003FF03FC0
007FF01FC0
00F7F01FE0
01C7F00FE0
018FE00FE0
000FE00FE0
000FE00FE0
001FC00FE0
001FC00FE0
001FC01FC0
001FC01FC0
003F803F80
003F803F00
003F807F00
007F00FE00
007F01F800
007F0FF000
007FFFC000
00FFFE0000
00FE000000
00FE000000
00FC000000
01FC000000
01FC000000
03FC000000
07FE000000
3FFFC00000
3FFFC00000
ENDCHAR

STARTCHAR q
ENCODING 113
SWIDTH 594 0
DWIDTH 30 0
BBX 32 32 0 -10
BITMAP
0003FC00
001FFF3C
003F0FFC
00FE07F8
01F807F8
03F807F8
07F007F0
07E007F0
0FE007F0
1FC00FE0
1FC00FE0
1FC00FE0
3F801FC0
3F801FC0
3F801FC0
3F803F80
3F807F80
3FC0FF80
1FE3FF00
1FFFFF00
0FFF7F00
07FC7E00
03F0FE00
0000FE00
0000FC00
0001FC00
0001FC00
0001FC00
0003FC00
000FFE00
007FFF80
007FFF80
ENDCHAR

STARTCHAR r
ENCODING 114
SWIDTH 479 0
DWIDTH 24 0
BBX 28 22 -1 0
BITMAP
00F00F80
03F81FC0
07FC3FC0
0FFC7FC0
1CFC67C0
18FCE7C0
30FDC780
70FD8780
01FB8000
01FB0000
01FB0000
01FE0000
01FE0000
03FC0000
03FC0000
03F80000
03F80000
07F80000
07F00000
07F00000
07F00000
0FE00000
ENDCHAR

STARTCHAR s
ENCODING 115
SWIDTH 490 0
DWIDTH 24 0
BBX 26 23 -1 -1
BITMAP
001FF800
007FFE00
00FC7F00
01F03F00
03F03F80
03F01F80
03F81F00
03FC0E00
03FF0000
01FF8000
00FFE000
007FF000
003FF800
001FF800
1C07FC00
3E03FC00
7F01FC00
7F01FC00
3F01F800
3F81F800
1FC3F000
0FFFC000
01FF0000
ENDCHAR

STARTCHAR t
ENCODING 116
SWIDTH 365 0
DWIDTH 18 0
BBX 18 30 2 -1
BITMAP
000C00
001C00
003C00
007C00
00F800
01F800
07F800
3FFF80
3FFF80
7FFF00
07F000
07E000
0FE000
0FE000
0FE000
0FC000
1FC000
1FC000
1FC000
3F8000
3F8000
3F8000
3F0000
7F0700
7F0E00
7F1C00
7FF800
3FF000
3FE000
0F8000
ENDCHAR

STARTCHAR u
ENCODING 117
SWIDTH 635 0
DWIDTH 32 0
BBX 33 23 0 -1
BITMAP
01F801FC00
07F801FC00
0FFC01FC00
1FFC03F800
39FC03F800
31FC07F800
61F807F000
03F807F000
03F80FF000
03F00FE000
07F01FE000
07F01FE000
07E03FE000
0FE06FC000
0FE07FC000
0FC0DFC600
0FC1DF8E00
1FC39F8C00
1FC73F9800
1FFE3FF000
0FFC3FE000
0FF01FC000
03C00F0000
ENDCHAR

STARTCHAR v
ENCODING 118
SWIDTH 573 0
DWIDTH 29 0
BBX 30 23 0 -1
BITMAP
00FF83E0
07FF87E0
0FFF07F0
1FFF07F0
1FFE07F0
3FFE03F0
301C03F0
383C01F0
387C01F0
00F800E0
00F800E0
01F001E0
03F001C0
03F001C0
07F00380
07F00380
07F00700
07F80F00
07FC3E00
03FFFC00
01FFF800
00FFE000
003F8000
ENDCHAR

STARTCHAR w
ENCODING 119
SWIDTH 854 0
DWIDTH 43 0
BBX 42 24 0 -1
BITMAP
000000400000
01FF01F03E00
07FF03F83F00
0FFE03F83F80
1FFE03F83F80
3FFC07F83F80
3FFC07F81F80
303807F01F80
303807F00F80
307807E00780
00F007E00780
01F007C00700
03E007C00700
07E007C00700
07E007E00600
07E00FE00E00
0FE01FF01E00
0FE03FF83C00
07F0FBFFF800
07FFF1FFF800
07FFE1FFF000
03FFC0FFE000
01FF007F8000
007C001E0000
ENDCHAR

STARTCHAR x
ENCODING 120
SWIDTH 615 0
DWIDTH 31 0
BBX 33 24 -1 -1
BITMAP
00FC003C00
01FE00FE00
03FF01FE00
07FF03FE00
07FF87FE00
0C3F8F3E00
0C3FDE1C00
003FDC0000
001FF80000
001FF00000
000FF00000
000FF00000
0007F80000
0007F80000
0007FC0000
0007FC0000
000FFE0000
1C1DFE0C00
3C38FF1800
3FF8FF3800
7FF07FF000
3FE07FE000
3FC03FC000
1F001F0000
ENDCHAR

STARTCHAR y
ENCODING 121
SWIDTH 552 0
DWIDTH 28 0
BBX 35 33 -6 -10
BITMAP
000F801F00
003FC03F80
003FE03F80
007FE03F80
00EFE03F80
00C7E03F80
00C7F03F80
0187F03F00
0007F01F00
0007F01F00
0003F81E00
0003F81E00
0003F83C00
0003F83800
0001FC7800
0001FC7000
0001FCE000
0001FDE000
0000FFC000
0000FF8000
0000FF0000
0000FE0000
00007C0000
0000780000
0000700000
0000E00000
1E01C00000
3F87800000
3FFF000000
3FFE000000
3FF8000000
3FE0000000
0F80000000
ENDCHAR

STARTCHAR z
ENCODING 122
SWIDTH 500 0
DWIDTH 25 0
BBX 27 24 -1 -1
BITMAP
007F0180
01FFE180
03FFFF80
03FFFF80
07FFFF00
073FFF00
0E03FE00
0F003C00
0F007800
0601E000
0003C000
000F0000
003E0000
00780000
01E00C00
03C01E00
07000E00
0FF80E00
1FFFFC00
1FFFFC00
3FFFF800
3FFFF000
30FFE000
301F8000
ENDCHAR

STARTCHAR braceleft
ENCODING 123
SWIDTH 396 0
DWIDTH 20 0
BBX 23 44 8 -10
BITMAP
000038
0001F0
0007C0
000F00
001E00
003E00
003E00
007E00
007E00
007C00
007C00
007C00
007C00
007C00
00FC00
00F800
00F800
00F000
01E000
03C000
070000
3C0000
380000
0E0000
070000
078000
07C000
07C000
07C000
0FC000
0FC000
1F8000
1F8000
3F0000
3F0000
3E0000
7E0000
7C0000
7C0000
7C0000
3C0000
3E0000
1F0000
078000
ENDCHAR

STARTCHAR bar
ENCODING 124
SWIDTH 219 0
DWIDTH 11 0
BBX 7 45 2 -11
BITMAP
38
38
38
38
38
38
38
38
38
38
38
38
38
38
38
38
38
38
38
38
38
38
38
38
38
38
38
38
38
38
38
38
38
38
38
38
38
38
38
38
38
38
38
38
38
ENDCHAR

STARTCHAR braceright
ENCODING 125
SWIDTH 396 0
DWIDTH 20 0
BBX 23 44 0 -10
BITMAP
000380
0001E0
0000F8
000078
00007C
00007C
00007C
0000FC
0000FC
0001F8
0001F8
0003F0
0003F0
0003E0
0007E0
0007C0
0007C0
0007C0
0003C0
0001C0
0000E0
000038
000038
0001E0
000380
000F00
001F00
003E00
003E00
007E00
007E00
007C00
007C00
007C00
007C00
007C00
00FC00
00FC00
00F800
00F000
01E000
03C000
0F0000
3C0000
ENDCHAR

STARTCHAR asciitilde
ENCODING 126
SWIDTH 573 0
DWIDTH 29 0
BBX 27 9 1 12
BITMAP
00000080
03F00080
0FFC0180
1FFF8380
1FFFFF80
3FFFFF00
383FFF00
3007FE00
6000F800
ENDCHAR

STARTCHAR space
ENCODING 160
SWIDTH 250 0
DWIDTH 15 0
BBX 0 0 0 0
BITMAP
ENDCHAR

STARTCHAR afii10023
ENCODING 161
SWIDTH 740 0
DWIDTH 37 0
BBX 42 45 -1 0
BITMAP
000018003000
00007E00FC00
00007E00FC00
0000FF01FE00
0000FF01FE00
00007E00FE00
00007E00FC00
00003C007800
000000000000
000000000000
000000000000
003FFFFFFF00
003FFFFFFF00
003FFC007F00
000FFC003F00
000FF8001F00
000FF8001E00
000FF8000E00
000FF8000E00
000FF0000000
000FF0000000
001FF0000000
001FF001C000
001FE003C000
001FE007C000
003FE01F8000
003FFFFF8000
003FFFFF8000
003FC03F0000
007FC01F0000
007F800F0000
007F800F0000
00FF80060000
00FF00000000
00FF00000000
00FF00000000
01FF00007800
01FE00007000
01FE0000F000
03FE0003F000
07FE0007E000
0FFF001FE000
1FFF80FFC000
3FFFFFFFC000
3FFFFFFFC000
ENDCHAR

STARTCHAR afii10051
ENCODING 162
SWIDTH 865 0
DWIDTH 43 0
BBX 42 34 2 0
BITMAP
0FFFFFFFFC00
0FFFFFFFFC00
0FE0FF83F800
1F80FF00F800
1E00FF00F800
1C00FF007800
3C01FF007000
3801FE007000
0001FE000000
0003FE000000
0003FC000000
0003FCFF8000
0003FFFFF000
0007FF87F800
0007FE01FC00
0007FC01FE00
0007F800FE00
000FF000FF00
000FF000FF00
000FF000FF00
001FF000FF00
001FE000FF00
001FE000FF00
001FE000FF00
003FE001FF00
003FC181FF00
003FC3E1FE00
007FC7E3FE00
007FC7E3FC00
00FF87C7F800
01FFC78FF800
03FFE3FFE000
07FFE1FFC000
07FFE0FE0000
ENDCHAR

STARTCHAR afii10052
ENCODING 163
SWIDTH 656 0
DWIDTH 33 0
BBX 39 44 -1 0
BITMAP
000003FFC0
000003FF00
000007FE00
000007F800
00000FE000
00000F8000
00001E0000
0000000000
0000000000
0000000000
007FFFFFFC
007FFFFFF8
003FFE07F8
001FFC01F8
001FF800F0
001FF800F0
001FF000F0
001FF000F0
001FF000E0
001FE000E0
003FE00000
003FE00000
003FC00000
003FC00000
007FC00000
007FC00000
007F800000
00FF800000
00FF800000
00FF000000
00FF000000
01FF000000
01FF000000
01FE000000
03FE000000
03FE000000
03FC000000
07FC000000
07FC000000
0FFC000000
0FFE000000
3FFF000000
3FFF000000
7FFF000000
ENDCHAR

STARTCHAR afii10053
ENCODING 164
SWIDTH 771 0
DWIDTH 39 0
BBX 41 35 2 0
BITMAP
000007FF8000
00007FFFF800
0001FE07FE00
0007F001FE00
001FE000FE00
003FC0007E00
007F80003E00
00FF00001E00
01FE00001E00
03FE00000E00
07FC00000000
07FC00000000
0FF800000000
0FF800000000
1FF800000000
1FF000000000
1FFFFFF80000
3FFFFFF00000
3FF000000000
3FF000000000
3FE000000000
3FE000000000
3FE000000000
3FE000000000
3FE000000000
3FE00007C000
3FF0000FE000
1FF0000FE000
1FF0001FE000
0FF8003FE000
07FC007FE000
03FE00FFC000
01FF83FF8000
007FFFFE0000
0007FFE00000
ENDCHAR

STARTCHAR afii10054
ENCODING 165
SWIDTH 625 0
DWIDTH 31 0
BBX 37 36 -2 -1
BITMAP
00001FE000
0000FFFE00
0003FFFF80
0007F01FE0
000FE00FE0
001FC007E0
001FC003E0
001FC003C0
003FC003C0
003FE003C0
003FF00000
003FF00000
001FFC0000
001FFE0000
000FFF0000
0007FF8000
0007FFC000
0003FFE000
0001FFF000
0000FFF000
00007FF800
00003FFC00
00000FFC00
000007FE00
000007FE00
1E0003FE00
1E0001FE00
1F0001FE00
1F0001FE00
3F0001FC00
3F8003FC00
3FC003F800
3FE00FF000
0FFC3FE000
03FFFF8000
003FFC0000
ENDCHAR

STARTCHAR afii10055
ENCODING 166
SWIDTH 417 0
DWIDTH 21 0
BBX 27 34 -1 0
BITMAP
003FFF80
003FFF80
001FFF00
000FFE00
000FFC00
000FF800
000FF800
000FF000
000FF000
001FF000
001FE000
001FE000
003FE000
003FE000
003FC000
003FC000
007FC000
007F8000
007F8000
007F8000
00FF8000
00FF0000
00FF0000
01FF0000
01FE0000
01FE0000
01FE0000
03FE0000
03FE0000
07FE0000
0FFF0000
1FFF8000
3FFFC000
7FFFC000
ENDCHAR

STARTCHAR afii10056
ENCODING 167
SWIDTH 417 0
DWIDTH 21 0
BBX 32 44 -1 0
BITMAP
00180030
007E00FC
007E00FC
00FF01FE
00FF01FE
007E00FC
007E00FC
00180030
00000000
00000000
003FFFC0
003FFF80
001FFF00
000FFE00
000FFC00
000FF800
000FF800
000FF800
000FF000
000FF000
001FF000
001FE000
001FE000
001FE000
003FE000
003FC000
003FC000
007FC000
007F8000
007F8000
007F8000
00FF8000
00FF0000
00FF0000
01FF0000
01FF0000
01FE0000
01FE0000
03FE0000
03FE0000
07FF0000
1FFF8000
3FFFC000
3FFFC000
ENDCHAR

STARTCHAR afii10057
ENCODING 168
SWIDTH 396 0
DWIDTH 20 0
BBX 39 44 -12 -10
BITMAP
00000FFFF8
00001FFFF8
000007FFF0
000003FFC0
000001FF80
000001FF00
000001FF00
000001FE00
000003FE00
000003FE00
000003FC00
000003FC00
000007FC00
000007FC00
000007F800
000007F800
00000FF800
00000FF800
00000FF000
00000FF000
00001FF000
00001FE000
00001FE000
00003FE000
00003FE000
00003FC000
00003FC000
00007FC000
00007F8000
00007F8000
00007F8000
0000FF8000
0000FF0000
0000FF0000
0000FF0000
0001FE0000
1E01FE0000
3F01FC0000
7F83FC0000
7F83F80000
3F87F00000
3FCFE00000
1FFF800000
07FC000000
ENDCHAR

STARTCHAR afii10058
ENCODING 169
SWIDTH 1099 0
DWIDTH 55 0
BBX 56 34 -1 0
BITMAP
0000FFFFFFF800
0001FFFFFFF800
00007F83FFE000
00003E01FFC000
00003C00FF8000
00003800FF8000
00003800FF0000
00003800FF0000
00003001FE0000
00003001FE0000
00007001FE0000
00006003FE0000
00006003FC0000
00006003FC0000
0000E003FC0000
0000C007FFFE00
0000C007FFFFC0
0000C007F83FE0
0001C00FF80FF8
0001800FF807F8
0001800FF003FC
0003800FF003FC
0003001FF003FE
0003001FF003FE
0003001FE003FE
0007001FE003FE
1E06003FE003FC
3F06003FC007FC
7F0C003FC007FC
7F1C007FE00FF8
7FB800FFE01FF0
3FF801FFF07FE0
3FF003FFFFFF80
0FC007FFFFFC00
ENDCHAR

STARTCHAR afii10059
ENCODING 170
SWIDTH 1125 0
DWIDTH 56 0
BBX 58 34 -1 0
BITMAP
003FFF80FFFE0000
003FFF81FFFE0000
003FFF00FFF80000
000FFC007FF00000
000FFC003FE00000
000FF8003FE00000
000FF8003FC00000
000FF0003FC00000
000FF0007FC00000
001FF0007F800000
001FF0007F800000
001FE000FF800000
003FE000FF800000
003FE000FF000000
003FC000FF000000
003FFFFFFFFF0000
007FFFFFFFFFE000
007FFFFFFE1FF800
007F8001FE03FC00
007F8003FE01FE00
00FF8003FC00FF00
00FF8003FC00FF00
00FF0003FC00FF80
01FF0007F800FF80
01FF0007F800FF80
01FF0007F800FF80
01FE000FF800FF80
03FE000FF001FF00
03FE000FF001FF00
07FE001FF803FE00
0FFE003FF807FC00
1FFF007FFC1FF800
3FFF81FFFFFFE000
3FFF81FFFFFF0000
ENDCHAR

STARTCHAR afii10060
ENCODING 171
SWIDTH 906 0
DWIDTH 45 0
BBX 43 34 2 0
BITMAP
0FFFFFFFFC00
1FFFFFFFF800
1FE0FF07F800
1F80FF01F800
3E01FF00F800
3C01FE00F000
3801FE00F000
3803FE007000
0003FE000000
0003FC000000
0003FC000000
0007FC0FC000
0007F87FF800
0007F9FFFC00
000FFBC1FE00
000FFF80FF00
000FFE007F80
000FFC007F80
001FF8007F80
001FF0007F80
001FE0007F80
001FE000FF80
003FE000FF00
003FC000FF00
003FC001FF00
007FC001FF00
007F8001FE00
007F8001FE00
00FF8003FE00
00FF8003FE00
01FFC007FF00
03FFE01FFF80
0FFFE03FFF80
0FFFE03FFF80
ENDCHAR

STARTCHAR afii10061
ENCODING 172
SWIDTH 723 0
DWIDTH 36 0
BBX 44 44 -1 0
BITMAP
0000007FFC00
0000007FF000
000000FFC000
000000FF0000
000001FC0000
000001F80000
000003E00000
000000000000
000000000000
000000000000
003FFF800F80
003FFF003FC0
003FFE007FC0
001FFC00FFE0
000FF801FFE0
000FF803FFC0
000FF0038780
001FF0070000
001FF0060000
001FE00E0000
001FE00C0000
003FE01C0000
003FE0380000
003FC0380000
003FC0F00000
007FFFE00000
007FFFF00000
007FFFF80000
00FF8FFC0000
00FF87FC0000
00FF03FC0000
00FF03FE0000
01FF03FE0000
01FF01FF0000
01FE01FF0000
03FE01FF0000
03FE00FF8000
03FC00FF8000
07FC007FC000
07FC007FC000
0FFE003FE000
3FFF003FF000
3FFF003FF800
7FFF001FF800
ENDCHAR

STARTCHAR hyphen
ENCODING 173
SWIDTH 458 0
DWIDTH 23 0
BBX 21 6 1 8
BITMAP
1FFFF0
3FFFE0
3FFFE0
3FFFE0
3FFFC0
7FFFC0
ENDCHAR

STARTCHAR afii10062
ENCODING 174
SWIDTH 719 0
DWIDTH 36 0
BBX 39 46 3 -1
BITMAP
000F000780
001F801FC0
003FC01FC0
003FC03FC0
001FE03FC0
001FF07F80
0007FFFF00
0000FFF000
0000000000
0000000000
0000000000
0FFFC01FF8
0FFFC01FF8
0FFF801FF8
03FE0007E0
03FE0007C0
01FE000780
01FE000700
00FE000700
00FF000E00
00FF000E00
00FF001C00
007F003C00
007F803800
007F807000
003F807000
003FC0E000
003FC0E000
003FC1C000
001FC1C000
001FE38000
001FE30000
000FE70000
000FF60000
000FFE0000
000FFC0000
0007FC0000
1F07F80000
3F87F00000
3F83F00000
3F83E00000
3FC3C00000
3FC3800000
1FFF000000
0FFE000000
03F8000000
ENDCHAR

STARTCHAR afii10145
ENCODING 175
SWIDTH 844 0
DWIDTH 42 0
BBX 48 43 -1 -9
BITMAP
003FFF80FFFC
003FFF81FFFC
003FFF00FFF8
000FFC007FF0
000FF8007FE0
000FF8007FC0
000FF0007FC0
000FF0007F80
001FF0007F80
001FE000FF80
001FE000FF80
001FE000FF00
003FE000FF00
003FC001FF00
003FC001FE00
003FC001FE00
007FC001FE00
007F8003FE00
007F8003FC00
00FF8003FC00
00FF0007FC00
00FF0007FC00
00FF0007F800
01FF0007F800
01FE000FF800
01FE000FF800
03FE000FF000
03FE000FF000
03FC001FF000
07FC001FF000
0FFE003FF800
1FFF007FFC00
3FFFFFFFFC00
7FFFFFFFFC00
0000FE000000
0000FC000000
0001FC000000
0001FC000000
0001FC000000
0003F8000000
0003F8000000
0003F8000000
0007F0000000
ENDCHAR

STARTCHAR afii10017
ENCODING 176
SWIDTH 708 0
DWIDTH 35 0
BBX 38 35 -4 0
BITMAP
00000007F8
00000007F8
0000000FF8
0000001FF8
0000003FF0
0000007FF0
000000FFF0
000001EFF0
000001CFF0
0000038FF0
0000070FF0
00000E1FF0
00001C1FF0
0000381FF0
0000781FE0
0000701FE0
0000E01FE0
0001C01FE0
0003801FE0
0007801FE0
0007FFFFE0
000FFFFFE0
001FFFFFE0
003C003FC0
0038003FC0
0070003FC0
00F0003FC0
01E0003FC0
01E0003FC0
03E0007FC0
07E0007FC0
0FF000FFE0
3FF803FFF0
3FF807FFF8
7FF807FFF0
ENDCHAR

STARTCHAR afii10018
ENCODING 177
SWIDTH 729 0
DWIDTH 36 0
BBX 40 34 -1 0
BITMAP
003FFFFFFC
007FFFFFFC
003FFE07F8
001FFC01F8
000FF800F8
000FF800F8
000FF00070
000FF00070
001FF00070
001FF00060
001FE00000
003FE00000
003FE00000
003FC00000
003FC00000
007FFFE000
007FFFFC00
007F83FE00
007F80FF80
00FF807F80
00FF003FC0
00FF003FC0
01FF003FE0
01FF003FE0
01FE003FE0
01FE003FE0
03FE003FC0
03FE007FC0
03FE007FC0
07FE00FF80
0FFE01FF00
1FFF07FE00
3FFFFFF800
7FFFFFC000
ENDCHAR

STARTCHAR afii10019
ENCODING 178
SWIDTH 750 0
DWIDTH 38 0
BBX 41 34 -1 0
BITMAP
003FFFFF8000
003FFFFFF000
001FFC1FF800
000FFC07FC00
000FF803FC00
000FF803FE00
000FF801FE00
000FF001FE00
000FF001FE00
000FF001FE00
001FF003FE00
001FE003FC00
001FE007F800
003FE00FF000
003FC07FE000
003FFFFF8000
003FFFFE0000
007F80FF8000
007F803FC000
007F801FE000
00FF801FF000
00FF000FF000
00FF000FF800
00FF000FF800
01FE000FF800
01FE000FF800
01FE000FF800
03FE001FF000
03FE001FF000
07FE003FE000
0FFE00FFC000
3FFF83FF8000
3FFFFFFE0000
7FFFFFF00000
ENDCHAR

STARTCHAR afii10020
ENCODING 179
SWIDTH 633 0
DWIDTH 32 0
BBX 39 34 -1 0
BITMAP
007FFFFFFC
007FFFFFF8
003FFE07F8
001FFC01F8
001FF800F0
001FF000F0
001FF000F0
001FF000F0
001FF000E0
001FE000E0
003FE00000
003FE00000
003FC00000
003FC00000
007FC00000
007FC00000
007F800000
00FF800000
00FF800000
00FF000000
00FF000000
01FF000000
01FF000000
01FE000000
03FE000000
03FE000000
03FC000000
07FC000000
07FC000000
0FFC000000
0FFE000000
3FFF000000
3FFF000000
7FFF000000
ENDCHAR

STARTCHAR afii10021
ENCODING 180
SWIDTH 719 0
DWIDTH 36 0
BBX 48 43 -7 -9
BITMAP
0001FFFFFFFC
0001FFFFFFFC
0000FF00FFF8
00003C007FE0
00003C007FE0
000038007FC0
000038007FC0
000038007FC0
000030007F80
00003000FF80
00007000FF80
00006000FF80
00006000FF00
00006001FF00
0000E001FF00
0000C001FE00
0000C003FE00
0001C003FE00
00018003FE00
00018003FC00
00038007FC00
00030007FC00
00030007F800
00070007F800
0006000FF800
000E000FF800
000C000FF000
001C001FF000
001C001FF000
0038001FF000
0078003FF000
01FC00FFFC00
07FFFFFFFE00
07FFFFFFFE00
0FF80003FC00
0FE00000FC00
0F8000007C00
0F0000007800
1E0000003800
1C0000003800
1C0000003800
380000003000
380000003000
ENDCHAR

STARTCHAR afii10022
ENCODING 181
SWIDTH 740 0
DWIDTH 37 0
BBX 43 34 -2 0
BITMAP
003FFFFFFF80
003FFFFFFF80
001FFE007F00
000FFC001F00
0007FC001F00
0007FC000F00
0007F8000F00
0007F8000600
000FF8000000
000FF8000000
000FF0000000
000FF000E000
001FF001C000
001FE003C000
001FE01FC000
001FFFFF8000
003FFFFF8000
003FC01F8000
003FC00F8000
007FC0070000
007FC0070000
007F80070000
007F80000000
00FF80000000
00FF00000000
00FF00003800
01FF00007800
01FF0000F000
01FF0001F000
03FF0007F000
07FF000FE000
1FFFC07FE000
3FFFFFFFE000
3FFFFFFFC000
ENDCHAR

STARTCHAR afii10024
ENCODING 182
SWIDTH 915 0
DWIDTH 46 0
BBX 58 34 -5 0
BITMAP
000F803FFFC03C00
001FE03FFFC0FF00
003FF01FFF01FF00
003FF00FFE03FF00
003FF80FFC03FF00
001FF807F807FF00
000F3807F8061E00
0000180FF80C0000
0000180FF80C0000
0000180FF0180000
0000180FF0180000
0000181FF0380000
0000181FE0700000
00001C1FE0600000
00000C3FE0E00000
00003FFFE7800000
0001FFFFFFE00000
0007FFFFFFF00000
000FFC7FCFF80000
000FF87FC7F80000
001FF07F87F80000
003FF07F87FC0000
003FE0FF83FC0000
007FE0FF03FC0000
007FC0FF03FE0000
00FFC1FF03FE0000
01FF81FF01FE0000
01FF01FE01FE0000
03FF01FE01FF0000
03FE03FE00FF0000
07FE07FF00FF8000
1FFC0FFF80FFC000
7FF81FFFC07FC000
7FF83FFFC07FC000
ENDCHAR

STARTCHAR afii10025
ENCODING 183
SWIDTH 656 0
DWIDTH 33 0
BBX 35 36 -1 -1
BITMAP
0000FFC000
0007FFF800
001FC3FC00
003F01FE00
003E00FF00
007C007F80
0078007F80
0070007F80
0070007F80
00E0007F80
0000007F80
000000FF80
000000FF00
000001FF00
000003FE00
00000FF800
0007FFE000
0007FE0000
00003FC000
00000FF000
000007F800
000003FC00
000003FC00
000003FE00
000003FE00
1C0003FE00
3E0003FE00
7F0003FE00
7F0007FC00
7F0007FC00
7F800FF800
3F800FF800
1FC01FF000
0FF07FC000
03FFFF8000
007FFC0000
ENDCHAR

STARTCHAR afii10026
ENCODING 184
SWIDTH 844 0
DWIDTH 42 0
BBX 48 34 -1 0
BITMAP
003FFF80FFFE
003FFF81FFFC
003FFF00FFF8
001FFC007FE0
000FF8007FE0
000FF8007FC0
000FF0007FC0
000FF000FFC0
000FF001FF80
001FF003FF80
001FE007FF80
001FE00EFF00
003FE01CFF00
003FE039FF00
003FC071FF00
003FC0E1FE00
007FC1C1FE00
007F8383FE00
007F8703FE00
00FF8E03FC00
00FF9C07FC00
00FF3807FC00
00FF7007F800
01FFE007F800
01FFC00FF800
01FF800FF800
03FF000FF000
03FE001FF000
03FE001FF000
07FE001FF000
0FFE003FF000
1FFF00FFFC00
3FFF81FFFC00
3FFF01FFFC00
ENDCHAR

STARTCHAR afii10027
ENCODING 185
SWIDTH 844 0
DWIDTH 42 0
BBX 48 45 -1 0
BITMAP
00001F000F80
00003F801FC0
00003F801FC0
00003FC03FC0
00003FC07FC0
00001FE0FF80
00000FFFFE00
000000FFF000
000000000000
000000000000
000000000000
003FFF80FFFE
003FFF81FFFC
003FFF00FFF8
001FFC007FE0
000FF8007FE0
000FF8007FC0
000FF0007FC0
000FF000FFC0
000FF001FF80
001FF003FF80
001FE007FF80
001FE00EFF00
003FE01CFF00
003FE039FF00
003FC071FF00
003FC0E1FE00
007FC1C1FE00
007F8383FE00
007F8703FE00
00FF8E03FC00
00FF9C07FC00
00FF3807FC00
00FF7007F800
01FFE007F800
01FFC00FF800
01FF800FF800
03FF000FF000
03FE001FF000
03FE001FF000
07FE001FF000
0FFE003FF000
1FFF00FFFC00
3FFF81FFFC00
3FFF01FFFC00
ENDCHAR

STARTCHAR afii10028
ENCODING 186
SWIDTH 723 0
DWIDTH 36 0
BBX 44 34 -1 0
BITMAP
003FFF800F80
003FFF003FC0
003FFE007FC0
001FFC00FFE0
000FF801FFE0
000FF803FFC0
000FF0038780
001FF0070000
001FF0060000
001FE00E0000
001FE00C0000
003FE01C0000
003FE0380000
003FC0380000
003FC0F00000
007FFFE00000
007FFFF00000
007FFFF80000
00FF8FFC0000
00FF87FC0000
00FF03FC0000
00FF03FE0000
01FF03FE0000
01FF01FF0000
01FE01FF0000
03FE01FF0000
03FE00FF8000
03FC00FF8000
07FC007FC000
07FC007FC000
0FFE003FE000
3FFF003FF000
3FFF003FF800
7FFF001FF800
ENDCHAR

STARTCHAR afii10029
ENCODING 187
SWIDTH 835 0
DWIDTH 42 0
BBX 47 34 -1 0
BITMAP
0000FFFFFFF8
0000FFFFFFF8
00007F01FFF0
00003E00FFC0
00001C00FFC0
00001C00FF80
00001C00FF80
00001800FF00
00001800FF00
00003801FF00
00003001FE00
00003001FE00
00007001FE00
00006003FE00
00006003FC00
00006003FC00
0000E007FC00
0000C007F800
0000C007F800
0001C007F800
0001800FF800
0001800FF000
0001800FF000
0003800FF000
0003001FF000
0003001FE000
1F07001FE000
3F06003FE000
3F8E003FE000
3F8C007FE000
3F9C007FE000
3FF801FFF800
1FF003FFF800
0FE003FFF800
ENDCHAR

STARTCHAR afii10030
ENCODING 188
SWIDTH 979 0
DWIDTH 49 0
BBX 55 34 -2 0
BITMAP
0007FF80007FF8
0007FF80007FF8
0007FF8000FFF0
0001FF8000FFC0
0001FF8001FFC0
0001FF8001FF80
0001FF8003FF80
0001FF8007FF00
00037FC007FF00
00037FC00EFF00
00077FC01CFF00
00067FC01CFF00
00067FC038FF00
000C3FC071FF00
000C3FC071FE00
001C3FE0E1FE00
00183FE1C1FE00
00383FE1C1FE00
00303FE381FE00
00301FE701FE00
00701FE601FE00
00601FFE03FE00
00E01FFC03FC00
00C01FFC03FC00
01C01FF803FC00
01C00FF003FC00
01800FF003FC00
03800FE003FC00
03800FC007FC00
07800FC007FC00
0FC00F800FFE00
1FE00F803FFF00
3FF00F007FFF00
7FF00E007FFF00
ENDCHAR

STARTCHAR afii10031
ENCODING 189
SWIDTH 844 0
DWIDTH 42 0
BBX 48 34 -1 0
BITMAP
003FFF80FFFE
003FFF81FFFC
003FFE00FFF8
001FFC007FE0
000FF8003FE0
000FF8003FC0
000FF0007FC0
000FF0007FC0
001FF0007F80
001FF0007F80
001FE000FF80
001FE000FF00
003FE000FF00
003FE000FF00
003FC001FF00
003FFFFFFE00
007FFFFFFE00
007FFFFFFE00
007F8003FE00
00FF8003FC00
00FF8003FC00
00FF0007FC00
00FF0007F800
01FF0007F800
01FE000FF800
01FE000FF800
01FE000FF000
03FE000FF000
03FE001FF000
07FE001FF000
0FFE003FF800
1FFF80FFFC00
3FFF81FFFC00
3FFF01FFFC00
ENDCHAR

STARTCHAR afii10032
ENCODING 190
SWIDTH 854 0
DWIDTH 43 0
BBX 40 36 3 -1
BITMAP
00000FE000
0000FFFE00
0003FFFF00
000FF03FC0
003FC00FE0
007F8007F0
00FF0007F8
01FE0003F8
03FE0003FC
07FC0003FC
07FC0003FC
0FF80003FE
1FF80003FE
1FF00003FE
1FF00003FE
3FE00003FE
3FE00003FE
3FE00007FE
7FE00007FC
7FE00007FC
7FC00007FC
7FC0000FFC
7FC0000FF8
7FC0000FF8
7FC0001FF0
3FC0001FF0
3FC0003FE0
3FC0003FC0
1FE0007F80
1FE000FF00
0FF001FE00
07F803FC00
03FC0FF000
00FFFFE000
003FFF0000
0007F00000
ENDCHAR

STARTCHAR afii10033
ENCODING 191
SWIDTH 854 0
DWIDTH 43 0
BBX 48 34 0 0
BITMAP
003FFFFFFFFC
007FFFFFFFFC
003FFE00FFF8
001FF8007FE0
001FF8007FC0
001FF0007FC0
001FF0007F80
001FF0007F80
001FE000FF80
001FE000FF00
003FE000FF00
003FC001FF00
003FC001FF00
003FC001FE00
007FC001FE00
007F8003FE00
007F8003FC00
00FF8003FC00
00FF8007FC00
00FF0007FC00
00FF0007F800
01FF0007F800
01FE000FF800
01FE000FF000
01FE000FF000
03FE000FF000
03FC001FF000
03FC001FE000
07FC001FE000
07FC003FE000
0FFE007FF000
3FFF00FFF800
3FFF01FFFC00
7FFF03FFF800
ENDCHAR

STARTCHAR afii10034
ENCODING 192
SWIDTH 677 0
DWIDTH 34 0
BBX 40 34 -2 0
BITMAP
003FFFFE00
007FFFFFE0
007FFFFFF0
000FFC0FF8
000FFC07FC
000FF803FC
0007F803FE
000FF803FE
000FF803FE
000FF003FE
000FF003FE
001FF003FC
001FE007FC
001FE007F8
003FE00FF8
003FE03FF0
003FC7FFE0
003FCFFF80
007FCFFC00
007F800000
007F800000
00FF800000
00FF800000
00FF000000
00FF000000
01FF000000
01FF000000
01FE000000
03FE000000
03FF000000
07FF000000
1FFFC00000
3FFFE00000
3FFFE00000
ENDCHAR

STARTCHAR afii10035
ENCODING 193
SWIDTH 750 0
DWIDTH 38 0
BBX 39 36 3 -1
BITMAP
00001FFC00
0000FFFF80
0003FC1FF0
000FF007F8
003FC001F8
007F8001F8
00FF0000F8
01FE0000F8
03FC000070
07F8000070
07F8000070
0FF0000000
0FF0000000
1FF0000000
1FE0000000
3FE0000000
3FE0000000
3FC0000000
7FC0000000
7FC0000000
7FC0000000
7FC0000000
7FC0000000
7FC0000000
7FC0000780
3FC0000780
3FC0000F80
3FE0001F00
1FE0001F00
1FF0003F00
0FF0007F00
07FC01FE00
03FE03FC00
00FFFFF000
007FFF8000
0007F80000
ENDCHAR

STARTCHAR afii10036
ENCODING 194
SWIDTH 729 0
DWIDTH 36 0
BBX 40 34 3 0
BITMAP
0FFFFFFFFE
0FFFFFFFFC
0FF07F81FC
1F807F80FC
1F00FF807C
1E00FF0078
3C00FF0038
3801FF0038
0001FF0000
0001FE0000
0001FE0000
0003FE0000
0003FE0000
0003FC0000
0003FC0000
0007FC0000
0007F80000
0007F80000
000FF80000
000FF80000
000FF00000
000FF00000
001FF00000
001FE00000
001FE00000
001FE00000
003FE00000
003FC00000
007FC00000
007FE00000
00FFE00000
03FFF80000
0FFFFC0000
0FFFFC0000
ENDCHAR

STARTCHAR afii10037
ENCODING 195
SWIDTH 719 0
DWIDTH 36 0
BBX 39 35 3 -1
BITMAP
0FFFC01FF8
0FFFC01FF8
0FFF801FF8
03FE0007E0
03FE0007C0
01FE000780
01FE000700
00FE000700
00FF000E00
00FF000E00
00FF001C00
007F003C00
007F803800
007F807000
003F807000
003FC0E000
003FC0E000
003FC1C000
001FC1C000
001FE38000
001FE30000
000FE70000
000FF60000
000FFE0000
000FFC0000
0007FC0000
1F07F80000
3F87F00000
3F83F00000
3F83E00000
3FC3C00000
3FC3800000
1FFF000000
0FFE000000
03F8000000
ENDCHAR

STARTCHAR afii10038
ENCODING 196
SWIDTH 1021 0
DWIDTH 51 0
BBX 50 34 2 0
BITMAP
000003FFF80000
000007FFF80000
000003FFF00000
000001FFC00000
000000FF800000
00003FFFFC0000
0007FFFFFFC000
003FFFFFFFF000
00FFC1FF0FF800
03FF01FE03FC00
07FC01FE01FE00
0FF803FE01FE00
0FF003FE00FF00
1FF003FC00FF00
1FE007FC00FF00
3FE007FC00FF00
3FE007F800FF00
3FC007F801FF00
3FC00FF801FF00
3FC00FF801FE00
3FC00FF003FE00
3FC00FF003FC00
1FE01FF007F800
1FE01FE00FF000
0FF01FE03FE000
07FE3FE0FFC000
01FFFFFFFF0000
007FFFFFF80000
0003FFE0000000
00007FE0000000
0000FFE0000000
0003FFF8000000
0007FFF8000000
0007FFF8000000
ENDCHAR

STARTCHAR afii10039
ENCODING 197
SWIDTH 771 0
DWIDTH 39 0
BBX 45 34 -2 0
BITMAP
003FFFE0FFF0
003FFFE0FFF0
001FFF807FE0
0007FE003F80
0003FE003F00
0003FE003E00
0001FF003800
0001FF007000
0000FF80E000
0000FF81C000
00007FC78000
00007FCF0000
00003FFC0000
00003FF80000
00001FF00000
00001FF00000
00000FF80000
00000FF80000
00000FFC0000
00001FFC0000
00003BFE0000
000073FE0000
0001E1FF0000
000381FF0000
000700FF8000
000E00FF8000
001C007FC000
0078007FC000
00F0003FE000
01F0003FF000
07F8007FF000
1FFC00FFFC00
3FFE01FFFC00
3FFC01FFFC00
ENDCHAR

STARTCHAR afii10040
ENCODING 198
SWIDTH 844 0
DWIDTH 42 0
BBX 48 43 -1 -9
BITMAP
007FFF81FFFC
007FFF01FFFC
003FFE01FFF8
001FFC007FE0
001FF8007FC0
001FF0007FC0
001FF0007F80
001FF0007F80
001FE000FF80
001FE000FF00
003FE000FF00
003FE001FF00
003FC001FF00
003FC001FE00
007FC001FE00
007F8003FE00
007F8003FC00
00FF8003FC00
00FF8003FC00
00FF0007FC00
00FF0007F800
01FF0007F800
01FE000FF800
01FE000FF800
03FE000FF000
03FE000FF000
03FC001FF000
03FC001FE000
07FC001FE000
07FC003FE000
0FFC007FF000
1FFE00FFF800
3FFFFFFFFC00
7FFFFFFFF800
00000003F800
00000001F800
00000000F800
00000000F000
00000000F000
000000007000
000000007000
000000006000
000000006000
ENDCHAR

STARTCHAR afii10041
ENCODING 199
SWIDTH 802 0
DWIDTH 40 0
BBX 41 34 4 0
BITMAP
3FFF80FFFE00
3FFF80FFFE00
3FFF00FFFE00
1FFC003FF000
0FF8003FE000
0FF8003FE000
0FF8003FC000
0FF0003FC000
1FF0007FC000
1FF0007F8000
1FE0007F8000
1FE000FF8000
3FE000FF8000
3FE000FF0000
3FC001FF0000
3FC003FF0000
3FC007FE0000
1FC00FFE0000
1FE01FFE0000
0FF07BFE0000
07FFF3FC0000
03FFC3FC0000
007E07FC0000
000007F80000
000007F80000
000007F80000
00000FF80000
00000FF00000
00001FF00000
00001FF00000
00003FF80000
0000FFFC0000
0000FFFE0000
0000FFFC0000
ENDCHAR

STARTCHAR afii10042
ENCODING 200
SWIDTH 1083 0
DWIDTH 54 0
BBX 60 34 -1 0
BITMAP
003FFF1FFF0FFFC0
007FFF1FFF1FFFC0
003FFE1FFE0FFF00
001FF81FFC0FFE00
001FF80FF807FC00
001FF00FF807FC00
001FF00FF807F800
001FF00FF00FF800
001FE00FF00FF800
001FE01FF00FF000
003FE01FE00FF000
003FC01FE01FF000
003FC03FE01FE000
003FC03FE01FE000
007FC03FC01FE000
007F803FC03FE000
007F807FC03FC000
00FF807FC03FC000
00FF007F807FC000
00FF007F807F8000
00FF00FF807F8000
01FF00FF007F8000
01FE00FF00FF8000
01FE01FF00FF0000
01FE01FF00FF0000
03FE01FE00FF0000
03FC01FE01FF0000
03FC03FE01FE0000
07FC03FE01FE0000
07FC07FE03FE0000
0FFC07FE07FF0000
1FFF1FFF0FFF8000
3FFFFFFFFFFFC000
7FFFFFFFFFFF8000
ENDCHAR

STARTCHAR afii10043
ENCODING 201
SWIDTH 1083 0
DWIDTH 54 0
BBX 60 43 -1 -9
BITMAP
003FFF1FFF0FFFC0
007FFF1FFF1FFFC0
003FFE1FFE0FFF00
001FF81FFC0FFE00
001FF80FF807FC00
001FF00FF807F800
001FF00FF807F800
001FE00FF00FF800
001FE00FF00FF000
003FE01FF00FF000
003FE01FE00FF000
003FC01FE01FF000
003FC03FE01FE000
007FC03FE01FE000
007FC03FC03FE000
007F803FC03FE000
007F807FC03FC000
00FF807F803FC000
00FF007F807FC000
00FF00FF807F8000
00FF00FF807F8000
01FF00FF007F8000
01FE00FF00FF8000
01FE01FF00FF0000
01FE01FE00FF0000
03FE01FE00FF0000
03FC01FE01FF0000
03FC03FE01FE0000
07FC03FE01FE0000
07FC07FE03FE0000
0FFC07FE07FF0000
1FFF1FFF0FFF8000
3FFFFFFFFFFFC000
7FFFFFFFFFFF8000
00000000007F8000
00000000001F8000
00000000000F8000
00000000000F0000
00000000000F0000
0000000000070000
0000000000070000
0000000000060000
0000000000060000
ENDCHAR

STARTCHAR afii10044
ENCODING 202
SWIDTH 823 0
DWIDTH 41 0
BBX 39 34 2 0
BITMAP
0FFFFFF800
0FFFFFF000
0FF0FFE000
1F80FF8000
1F00FF8000
1E00FF0000
3C01FF0000
3801FF0000
0001FE0000
0003FE0000
0003FE0000
0003FC0000
0003FC0000
0007FC0000
0007FC0000
0007FFFC00
0007FFFF80
000FF87FE0
000FF01FF0
000FF00FF8
001FF007F8
001FF007F8
001FE007FC
001FE007FC
003FE007FC
003FE007FC
003FC007F8
007FC00FF8
007FC00FF8
00FFC01FF0
00FFE03FE0
03FFF0FFC0
07FFFFFF00
07FFFFF800
ENDCHAR

STARTCHAR afii10045
ENCODING 203
SWIDTH 1050 0
DWIDTH 53 0
BBX 59 34 -1 0
BITMAP
007FFF00003FFF80
007FFF00003FFF80
007FFE00001FFF00
001FFC00000FFC00
001FF800000FFC00
001FF000000FF800
001FF000000FF800
001FE000000FF000
001FE000000FF000
003FE000001FF000
003FE000001FE000
003FC000001FE000
003FC000001FE000
007FC000003FE000
007F8000003FC000
007FFFE0003FC000
007FFFF8007FC000
00FF87FE007F8000
00FF01FF007F8000
00FF00FF007F8000
01FF007F80FF8000
01FF007F80FF0000
01FE007FC0FF0000
01FE007FC0FF0000
03FE007FC1FF0000
03FE007FC1FE0000
03FC007F81FE0000
03FC00FF83FE0000
07FC00FF83FE0000
07FC01FF03FE0000
0FFE03FE07FE0000
1FFF0FFC1FFF8000
3FFFFFF03FFF8000
7FFFFFC03FFF8000
ENDCHAR

STARTCHAR afii10046
ENCODING 204
SWIDTH 719 0
DWIDTH 36 0
BBX 36 34 -1 0
BITMAP
003FFF8000
007FFF8000
003FFE0000
001FFC0000
000FF80000
000FF80000
000FF00000
001FF00000
001FF00000
001FE00000
001FE00000
003FE00000
003FC00000
003FC00000
003FC00000
007FFFE000
007FFFFC00
007F83FE00
00FF80FF80
00FF807F80
00FF003FC0
00FF003FC0
01FF003FE0
01FE003FE0
01FE003FE0
03FE003FE0
03FE003FE0
03FC007FC0
07FC007FC0
07FE00FF80
0FFE01FF00
1FFF07FE00
7FFFFFF800
7FFFFFC000
ENDCHAR

STARTCHAR afii10047
ENCODING 205
SWIDTH 777 0
DWIDTH 39 0
BBX 39 36 1 -1
BITMAP
0001FFE000
001FFFFC00
007FC0FF00
00FE003F80
00FC001FC0
00F8000FE0
01F0000FF0
01E00007F0
01E00007F8
01C00007F8
01C00007F8
00000007FC
00000007FC
00000007FC
00000007FC
00000007FC
0007FFFFFC
0007FFFFFC
000FFFFFFC
0000000FF8
0000000FF8
0000001FF8
0000001FF0
0000003FF0
0C00003FF0
3F00003FE0
3F00007FC0
7F8000FFC0
7F8000FF80
3F8001FF00
3F8003FE00
1FC007FC00
0FF03FF000
07FFFFE000
01FFFF0000
000FF00000
ENDCHAR

STARTCHAR afii10048
ENCODING 206
SWIDTH 1250 0
DWIDTH 63 0
BBX 64 36 -1 -1
BITMAP
00000000000FE000
003FFF8000FFFC00
003FFF8003FFFF00
003FFF000FF03FC0
001FFC003FC00FE0
000FF8007F8007F0
000FF800FF0007F8
000FF001FE0003F8
001FF003FE0003FC
001FF007FC0003FC
001FE007FC0003FC
001FE00FF80003FE
003FE00FF80003FE
003FE01FF00003FE
003FC01FF00003FE
003FC03FF00003FE
007FC03FE00003FE
007FFFFFE00007FE
007FFFFFE00007FC
00FF807FE00007FC
00FF807FC00007FC
00FF007FC0000FFC
00FF007FC0000FF8
01FF007FC0000FF8
01FF007FC0001FF0
01FE007FC0001FF0
01FE003FC0003FE0
03FE003FC0003FC0
03FC001FE0007F80
03FC001FE0007F00
07FE000FF000FE00
0FFE0007F803FC00
3FFF0003FC07F000
3FFF0000FFFFE000
7FFF00003FFF0000
0000000007F00000
ENDCHAR

STARTCHAR afii10049
ENCODING 207
SWIDTH 792 0
DWIDTH 40 0
BBX 47 34 -3 0
BITMAP
00000FFFFFF8
00007FFFFFF8
0001FF81FFE0
0003FE00FFC0
0007FC00FF80
000FF800FF80
000FF800FF80
001FF000FF00
001FF000FF00
001FF001FF00
001FF001FE00
000FF001FE00
000FF003FE00
0007F803FE00
0003FC03FC00
0001FF03FC00
00007FFFFC00
00007FFFF800
0000FFC7F800
0001FF87F800
0003FF0FF800
0007FE0FF000
000FFC0FF000
001FFC1FF000
001FF81FE000
003FF01FE000
007FF01FE000
00FFE03FE000
01FFC03FE000
03FF807FE000
07FF007FE000
1FFE01FFF800
3FFE03FFF800
3FF803FFF800
ENDCHAR

STARTCHAR afii10065
ENCODING 208
SWIDTH 585 0
DWIDTH 29 0
BBX 30 24 -1 -1
BITMAP
0007F000
001FFCF0
007E3EF0
00FC1FE0
01F81FE0
03F01FE0
07E01FC0
07E01FC0
0FC01FC0
0FC01FC0
1FC01F80
1FC03F80
1F803F80
3F803F00
3F807F00
3F80FF00
3F80FE00
3FC1FE30
3FC3FE70
3FFFFEE0
1FFE7FC0
1FFC7FC0
0FF87F00
07E03E00
ENDCHAR

STARTCHAR afii10066
ENCODING 209
SWIDTH 573 0
DWIDTH 29 0
BBX 30 36 1 -1
BITMAP
00000010
00003FF0
0007FFF0
001FFFF0
003FFFE0
00FFFFC0
01FFFF80
01FFF800
03E00000
07800000
07000000
0E000000
0C0FF000
1C3FFC00
187C7E00
18F83F00
39F01F00
33E01F80
37C01F80
37C01FC0
7F801FC0
7F801FC0
7F801FC0
7F001FC0
7F003FC0
7F003F80
7F003F80
7F003F80
3F007F00
3F007F00
3F00FE00
1F81FC00
0F81F800
0FE7F000
03FFC000
00FF0000
ENDCHAR

STARTCHAR afii10067
ENCODING 210
SWIDTH 514 0
DWIDTH 26 0
BBX 25 23 0 -1
BITMAP
0007F800
003FFE00
00FFFF00
01F83F00
03F01F00
07E01F00
0FE01E00
1FC03E00
1FC07C00
1FC3F000
3F9FC000
3FFFF000
3FFFFC00
3F81FC00
3F00FE00
3F00FE00
3F00FE00
1F00FE00
1F01FC00
0F81FC00
07C7F800
03FFE000
007F8000
ENDCHAR

STARTCHAR afii10068
ENCODING 211
SWIDTH 378 0
DWIDTH 19 0
BBX 20 23 0 -1
BITMAP
007F00
00FF80
03FFC0
039FC0
030FC0
000FC0
000FC0
000F80
001F00
003E00
007C00
01F000
07C000
1F8000
3F8000
3F0000
7F0000
7F0000
7F0600
7F0E00
3FFC00
1FF800
07E000
ENDCHAR

STARTCHAR afii10069
ENCODING 212
SWIDTH 568 0
DWIDTH 28 0
BBX 29 36 1 -1
BITMAP
0001C000
0000F000
00007800
00003C00
00001E00
00001F00
00000F80
00000F80
00000FC0
000007C0
000007E0
000007E0
003FC7E0
00FFF7F0
01FC7FF0
07F01FF0
07E01FF0
0FE00FF0
1FC00FF0
1FC00FF0
3F800FF0
3F800FE0
3F800FE0
3F000FE0
7F000FE0
7F001FC0
7F001FC0
7F001FC0
3F003F80
3F003F80
3F007F00
1F80FE00
0F80FC00
07E3F800
03FFF000
00FF8000
ENDCHAR

STARTCHAR afii10070
ENCODING 213
SWIDTH 517 0
DWIDTH 26 0
BBX 26 23 0 -1
BITMAP
0000F800
0007FE00
001FFF00
007E1F80
00F80F80
01F00F80
03E00F80
07E00F80
0FC01F00
0FC03E00
1FC0FC00
1F87F800
3FFFE000
3FFF0000
3F800000
3F800000
3FC00700
3FC01E00
1FF07C00
1FFFF800
0FFFE000
07FFC000
01FE0000
ENDCHAR

STARTCHAR afii10072
ENCODING 214
SWIDTH 1083 0
DWIDTH 54 0
BBX 58 23 -2 -1
BITMAP
001F8007F003F800
00FFE007E00FFE00
01FFF007E03F3F00
03FFF80FE07C3F00
0787F80FC0FC1F00
0F03FC0FC1F81F00
1E01FC0FC1F01F00
0001FC1F83F00000
0001FC1F83F00000
0001FC1F87F00000
0001FC3F87E00000
0001FFFFFFE00000
0001FFFFFFE00000
0001F87F0FE00000
0003F87E0FE00000
0003F07E0FE00000
1E03E0FE0FE00E00
3E07E0FC0FF01C00
3F07C0FC07F07800
3F0F81FC07FFF000
3F1E01F803FFE000
1FF803F801FFC000
07E00000007E0000
ENDCHAR

STARTCHAR afii10073
ENCODING 215
SWIDTH 407 0
DWIDTH 20 0
BBX 22 23 -1 -1
BITMAP
001F80
00FFE0
03FFF0
0783F8
0603F8
0003F8
0003F0
0003F0
000FE0
00FF80
00F800
003E00
001F80
000FC0
000FC0
000FE0
000FE0
3C0FE0
7C1FE0
7E1FC0
3E3F80
3FFF00
0FFC00
ENDCHAR

STARTCHAR afii10074
ENCODING 216
SWIDTH 635 0
DWIDTH 32 0
BBX 33 23 0 -1
BITMAP
03F801FC00
07FC01FC00
0FFC01F800
1DFC03F800
39FC03F800
31FC07F800
61F807F000
03F80FF000
03F80FF000
03F00FE000
07F01FE000
07F03FE000
07E03FC000
0FE06FC000
0FE07FC000
0FC0DFC600
1FC19F8C00
1FC3BF9C00
1FC73FB800
1FFE3FF000
0FF83FE000
07F01FC000
0180060000
ENDCHAR

STARTCHAR afii10075
ENCODING 217
SWIDTH 635 0
DWIDTH 32 0
BBX 33 34 0 -1
BITMAP
0001C01800
0003E03000
0003F07000
0003F8E000
0003FFC000
0001FF8000
00007E0000
0000000000
0000000000
0000000000
0000000000
01F801FC00
07F801FC00
0FFC01FC00
1FFC03F800
39FC03F800
31FC03F800
61F807F000
03F807F000
03F80FF000
03F00FE000
07F01FE000
07F01FE000
07E03FE000
0FE07FC000
0FE07FC000
0FC0DFC600
0FC1DF8E00
1FC39F8C00
1FC73F9800
1FFE3FF000
0FFC3FE000
0FF01FC000
03C00F0000
ENDCHAR

STARTCHAR afii10076
ENCODING 218
SWIDTH 563 0
DWIDTH 28 0
BBX 29 23 0 0
BITMAP
000E01C0
01FE07E0
0FFC07F0
1FFC0FF0
03FC0FE0
01F81DC0
03F81800
03F83800
03F87000
03F7E000
07FFE000
07FFE000
07E7F000
0FE3F000
0FE3F800
0FC3F800
0FC1F800
1FC1FC00
1F81FC00
1F80FE00
3F80FF00
3F80FF00
3F007F00
ENDCHAR

STARTCHAR afii10077
ENCODING 219
SWIDTH 594 0
DWIDTH 30 0
BBX 31 23 -2 -1
BITMAP
000007F0
00003FF0
00007FF0
0001C7E0
00038FE0
00070FE0
00060FC0
000C1FC0
001C1FC0
00181F80
00181F80
00383F80
00303F80
00303F00
00707F00
00607F18
00E07E30
3FC0FE30
3FC0FE60
7FC0FFC0
7F80FF80
3F007F00
1C003C00
ENDCHAR

STARTCHAR afii10078
ENCODING 220
SWIDTH 729 0
DWIDTH 36 0
BBX 39 22 -3 -1
BITMAP
0003F00FF0
0007F00FF0
0007F01FE0
0007F01FE0
000FF03FE0
000FF07FC0
000FF06FC0
001FF0FFC0
001BF1DFC0
0019F99F80
0019FBBF80
0031FF3F80
0031FE3F00
0031FE7F00
0061FC7F18
0061F87E30
00E1F8FE30
1FE1F0FE60
3FC1E0FFC0
3FC1E0FF80
3F81C07F00
1F01803C00
ENDCHAR

STARTCHAR afii10079
ENCODING 221
SWIDTH 635 0
DWIDTH 32 0
BBX 33 23 0 -1
BITMAP
007E01FC00
0FFE01FC00
0FFE01F800
01FC03F800
01FC03F800
01FC03F000
01F803F000
01F807F000
03F807F000
03F807E000
03FFFFE000
07FFFFE000
07F00FC000
07E00FC000
0FE01FC000
0FE01F8600
0FC01F8C00
1FC01F8C00
1FC03F9800
1FC03FF000
3F803FE000
3F801FC000
0000060000
ENDCHAR

STARTCHAR afii10080
ENCODING 222
SWIDTH 573 0
DWIDTH 29 0
BBX 28 23 1 -1
BITMAP
001FF000
007FFE00
01FC3F00
03F81F80
07F00FC0
0FE00FC0
1FC00FC0
1FC00FE0
3F800FE0
3F800FE0
3F800FE0
7F801FE0
7F001FE0
7F001FC0
7F001FC0
7F003F80
3F003F80
3F007F00
1F807E00
0F80FC00
07E3F800
03FFE000
00FF8000
ENDCHAR

STARTCHAR afii10081
ENCODING 223
SWIDTH 635 0
DWIDTH 32 0
BBX 34 23 -1 -1
BITMAP
007801F800
01FE07FC00
07FE1FFE00
0FFE3CFE00
0CFE70FE00
18FEE0FE00
38FCC1FC00
01FD81FC00
01FF81FC00
01FB03F800
03FE03F800
03FC07F000
03FC07F000
07F807E000
07F80FE000
07F00FE000
0FF00FC300
0FE01FC600
0FE01FFC00
1FC01FF800
1FC01FF000
1F800FC000
0000030000
ENDCHAR

STARTCHAR afii10082
ENCODING 224
SWIDTH 612 0
DWIDTH 31 0
BBX 37 37 -6 -9
BITMAP
0000020000
0000FE0000
0001FC0000
0001FC0000
0001FC0000
0001FFF800
0003FFFE00
0003FFFF80
000FF87F80
003FF03FC0
007FF01FC0
00F7F01FE0
01C7F00FE0
018FE00FE0
000FE00FE0
000FE00FE0
001FC00FE0
001FC00FC0
001FC01FC0
001FC01FC0
003F803F80
003F803F00
003F807F00
007F00FE00
007F01F800
007F0FF000
007FFFC000
00FFFE0000
00FE000000
00FE000000
00FC000000
01FC000000
01FC000000
03FC000000
07FE000000
3FFFC00000
3FFFC00000
ENDCHAR

STARTCHAR afii10083
ENCODING 225
SWIDTH 506 0
DWIDTH 25 0
BBX 26 24 1 -1
BITMAP
0003F000
003FFC00
00FFFE00
01FC3F00
03F03F00
07E03F00
0FC03F00
1FC01E00
1F800000
3F800000
3F000000
3F000000
7F000000
7F000000
7F000000
7F000000
7F800000
7F801E00
3FC03C00
3FF0F800
1FFFF000
1FFFC000
07FF8000
01FC0000
ENDCHAR

STARTCHAR afii10084
ENCODING 226
SWIDTH 1000 0
DWIDTH 50 0
BBX 52 24 -1 -1
BITMAP
00780078003C00
01FC03FE01FE00
07FE0FFF03FF00
0FFE1FFF07FF00
1CFE3C7F0E3F00
18FE707F1C3F00
30FEE07F383F00
01FCC07F707F00
01FD80FEE07E00
01FF00FFC0FE00
01FF00FF80FE00
03FE01FF00FC00
03FC01FF01FC00
03FC01FE01FC00
07F801FE01F800
07F003FC03F800
07F003FC03F8E0
0FE003F803F1C0
0FE007F803F380
0FE007F007F780
1FC007F007FF00
1FC00FE003FC00
1FC00FE003F800
0000000000C000
ENDCHAR

STARTCHAR afii10085
ENCODING 227
SWIDTH 552 0
DWIDTH 28 0
BBX 35 33 -6 -10
BITMAP
000F801F00
001FC03F00
003FE03F80
007FE03F80
00EFE03F80
00C7E03F80
00C7F03F80
0187F03F80
0007F01F00
0007F01F00
0003F81E00
0003F81E00
0003F83C00
0003F83800
0001FC7800
0001FC7000
0001FCE000
0001FDE000
0000FFC000
0000FF8000
0000FF0000
0000FE0000
00007C0000
0000780000
0000700000
0000E00000
1E03C00000
3F87800000
3FFF000000
3FFC000000
3FF8000000
1FE0000000
0F80000000
ENDCHAR

STARTCHAR afii10086
ENCODING 228
SWIDTH 781 0
DWIDTH 39 0
BBX 39 45 0 -10
BITMAP
0000000FE0
0000003FF0
0000007FF0
000000F3F0
000001F1F0
000003E0E0
000003E000
000007E000
000007E000
00000FC000
00000FC000
00000FC000
00001FC000
003F9F8F80
00FFFFBFC0
01F8FFFFE0
03F07FE3F0
07F07FC1F0
0FE03F81F8
0FE07F81F8
1FC07F01F8
1FC07F01F8
1FC07E03F8
3F807E03F8
3F80FE03F8
3F80FC03F8
3F00FC03F8
3F01FC07F0
3F01FC07F0
3F01FC0FE0
3F03F80FE0
1F87FC1FC0
1F8FFC1F80
0FFFFE3F00
07FBFFFE00
01E3F3F800
0007F00000
0007E00000
0007E00000
0707C00000
0F8F800000
0FCF000000
0FFE000000
0FFC000000
07F0000000
ENDCHAR

STARTCHAR afii10087
ENCODING 229
SWIDTH 615 0
DWIDTH 31 0
BBX 33 24 -1 -1
BITMAP
00FC003800
01FE00FE00
03FF01FE00
07FF03FE00
077F87FE00
0C3F8F3E00
1C3FDC1C00
001FDC0000
001FF80000
000FF00000
000FF00000
000FF00000
0007F80000
0007F80000
0007FC0000
0007FC0000
000FFE0000
3C1CFE0C00
3E38FE1800
7FF0FF3800
7FF07FF000
3FE07FE000
3F803FC000
1F001F0000
ENDCHAR

STARTCHAR afii10088
ENCODING 230
SWIDTH 625 0
DWIDTH 31 0
BBX 33 31 0 -9
BITMAP
03F801FC00
07FC01FC00
0FFC01F800
1DFC03F800
39FC03F800
31FC07F800
61F807F000
03F80FF000
03F80FF000
03F00FE000
07F01FE000
07F03FE000
07E03FC000
0FE06FC000
0FE07FC000
0FC0DFC600
1FC19F8E00
1FC3BF9C00
1FC73FB800
1FFE3FF000
0FF83FE000
07F01F8000
0180070000
00000E0000
00001E0000
00001E0000
00003E0000
00003E0000
00007C0000
0001F80000
0001F00000
ENDCHAR

STARTCHAR afii10089
ENCODING 231
SWIDTH 615 0
DWIDTH 31 0
BBX 32 23 0 -1
BITMAP
01F801F8
07F803F8
0FFC03F8
1FFC03F0
19FC07F0
31F807F0
71F807E0
03F807E0
03F00FE0
07F01FE0
07F03FC0
07F0FFC0
03FFDFC0
01FF1F80
00FC3F80
00003F8C
00003F0C
00003F18
00007F38
00007FF0
00007FE0
00007F80
00001E00
ENDCHAR

STARTCHAR afii10090
ENCODING 232
SWIDTH 1000 0
DWIDTH 50 0
BBX 52 23 -1 -1
BITMAP
00FC007F001F80
03FC007F003F80
07FE007E003F80
0EFE00FE003F00
1CFE00FE007F00
38FC01FE007F00
30FC01FC00FE00
01FC03FC00FE00
01F803FC01FE00
03F807F801FE00
03F80FF803FC00
03F00FF807FC00
07F01FF007FC00
07F03FF00DF800
07E077F01BF800
0FE067E03BF800
0FE0CFE073F0C0
0FC1CFE0E7F180
0FC78FE3C7F380
0FFE0FFF87FF00
0FFC07FF07FE00
07F007FC03F800
03C001E001E000
ENDCHAR

STARTCHAR afii10091
ENCODING 233
SWIDTH 1000 0
DWIDTH 50 0
BBX 52 32 -1 -10
BITMAP
00FC007F001F80
03FC007F003F80
07FE007E003F80
0EFE00FE003F00
1CFE00FE007F00
38FC01FE007F00
30FC01FC00FE00
01FC03FC00FE00
01F803FC01FE00
03F807F801FE00
03F80FF803FC00
03F00FF807FC00
07F01FF007FC00
07F03FF00DF800
07E077F01BF800
0FE067E03BF800
0FE0CFE073F0C0
0FC1CFE0E7F1C0
0FC78FE3C7F380
0FFE0FFF87FF00
0FFC07FF07FE00
07F007FC03F800
03C001E001E000
0000000000E000
0000000001E000
0000000003E000
0000000003C000
0000000007C000
0000000007C000
000000001F8000
000000003E0000
00000000200000
ENDCHAR

STARTCHAR afii10092
ENCODING 234
SWIDTH 521 0
DWIDTH 26 0
BBX 25 22 0 -1
BITMAP
07E3C000
0FFF8000
1FFD8000
3FFB0000
79E70000
300E0000
001C0000
007C0000
00FBF800
01EFFC00
03FFFE00
07F8FF00
0FF07F00
0FE07F00
1FC07F00
1FC07F00
1FC07F00
1FC0FE00
0FC0FC00
07E3F800
03FFF000
00FF8000
ENDCHAR

STARTCHAR afii10093
ENCODING 235
SWIDTH 781 0
DWIDTH 39 0
BBX 39 22 1 -1
BITMAP
03F80007F0
3FF8007FF0
7FF0007FF0
0FF0000FE0
07F0000FE0
07E0000FE0
0FE0000FC0
0FE0000FC0
0FC7F01FC0
1FFFF81F80
1FFFFC1F80
1FE1FC3F80
1FC0FE3F00
3F80FE3F00
3F80FE7F00
3F00FE7E18
3F00FC7E30
3F01FC7E70
1F83F8FEE0
1FC7F0FFC0
0FFFE07F80
01FF807E00
ENDCHAR

STARTCHAR afii10094
ENCODING 236
SWIDTH 510 0
DWIDTH 26 0
BBX 24 22 1 -1
BITMAP
03F800
3FF800
7FF000
0FF000
07F000
07E000
0FE000
0FE000
0FC7F0
1FFFF8
1FFFFC
1FE1FE
1FC0FE
3F80FE
3F80FE
3F00FE
3F00FC
3F01FC
1F83F8
1FC7F0
0FFFE0
01FF80
ENDCHAR

STARTCHAR afii10095
ENCODING 237
SWIDTH 483 0
DWIDTH 24 0
BBX 26 24 -1 -1
BITMAP
000FE000
007FF800
01FFFC00
03FFFE00
0783FE00
0F00FF00
1E00FF00
00007F00
00007F00
00007F00
00007F00
007FFF00
007FFF00
00007E00
00007E00
0000FE00
3C00FC00
7E01F800
7E01F800
7E07F000
7E0FE000
3FFF8000
1FFE0000
03F00000
ENDCHAR

STARTCHAR afii10096
ENCODING 238
SWIDTH 867 0
DWIDTH 43 0
BBX 44 23 0 -1
BITMAP
001E001FF000
0FFE00FFFE00
0FFE01FC3F00
0FFC03F81F80
01FC0FF00FC0
01FC0FE00FC0
01F81FC00FC0
01F83FC00FE0
03F83F800FE0
03F83F800FE0
03FFFF800FE0
07FFFF001FE0
07F07F001FE0
07E07F001FC0
0FE07F003FC0
0FE07F003F80
0FC03F003F80
1FC03F007F00
1FC01F80FE00
1FC00FC0FC00
3F8007E3F800
3F8003FFE000
000000FF8000
ENDCHAR

STARTCHAR afii10097
ENCODING 239
SWIDTH 603 0
DWIDTH 30 0
BBX 32 23 -2 -1
BITMAP
001FFFFC
003FFFFC
007F81FC
00FE01F8
00FE03F8
00FC03F8
00FC03F0
00FC07F0
007E07F0
007F07E0
003FFFE0
000FFFE0
001E0FE0
00380FC0
00701FC0
00601FC6
00E01F8C
1FC01F88
3FC03F98
3F803FF0
3F803FE0
3F001FC0
1C000F00
ENDCHAR

STARTCHAR afii61352
ENCODING 240
SWIDTH 1135 0
DWIDTH 57 0
BBX 58 36 -2 -1
BITMAP
0000000000FC0000
0007FE0003FE0000
0007FF0007FF0000
0003FF00077F0000
0000FF000E7F0000
00007F800C7F0000
00007F800C7E0000
00007FC01C3C0000
00007FC01C000000
00007FC018000000
0000DFE03801F800
0000DFE0380FFE00
0000DFF0301F1F00
0001CFF0307C0F00
00018FF0707C0F80
00018FF870F80F80
000187F861F80F80
000387F861F00F80
000303FC61F00F80
000303FCC3E01F00
000703FEC3E01F00
000701FEC3E01F00
000601FEC3E03E00
000601FF81E03C00
000E00FF81E07C00
000C00FF80F0F000
000C007F807FE000
1C0C007F001F8000
3F1C007F00000000
7F18003F00000000
7F18003E00000000
7F30003E0FFFF800
7FF0001E0FFFF800
3FE0001E1FFFF800
1FC0000C1FFFF000
0700000000000000
ENDCHAR

STARTCHAR afii10071
ENCODING 241
SWIDTH 517 0
DWIDTH 26 0
BBX 29 34 0 -1
BITMAP
001E03E0
003E07E0
007F07F0
007F07F0
003E03E0
001C03C0
00000000
00000000
00000000
00000000
0000F800
0007FE00
001FFF00
007E1F80
00F80F80
01F00F80
03E00F80
07E00F80
0FC01F00
0FC03F00
1FC07E00
1F83FC00
3FFFF000
3FFFC000
3FFC0000
3F800000
3F800000
3FC00F00
3FC01E00
3FF07C00
1FFFF800
0FFFE000
07FF8000
01FC0000
ENDCHAR

STARTCHAR afii10099
ENCODING 242
SWIDTH 631 0
DWIDTH 32 0
BBX 31 45 -1 -9
BITMAP
0000E000
003FE000
01FFC000
01FFC000
001FC000
001F8000
003F8000
01FFFFF8
01FFFFF8
03FFFFF0
007F0000
007E0000
007E0000
00FE7F80
00FFFFC0
00FFC7E0
01FF03F0
01FE01F8
01F801F8
03F801F8
03F801FC
03F801FC
03F001FC
07F001FC
07F001FC
07E001FC
0FE003FC
0FE003F8
0FC003F8
1FC003F8
1FC007F8
1F8007F0
3F8007F0
3F800FE0
3F000FE0
3F001FC0
00001F80
00003F00
00007E00
00007E00
0000F800
0001F000
0007E000
001F8000
001E0000
ENDCHAR

STARTCHAR afii10100
ENCODING 243
SWIDTH 512 0
DWIDTH 26 0
BBX 29 36 -1 0
BITMAP
00003F80
00007FC0
00007F80
00007F00
0000FE00
0000FC00
0000F800
0001F000
0001E000
0001C000
00000000
00000000
00000000
00000000
01FFFFF0
01FFFFE0
01FF83E0
00FF01E0
00FE01C0
00FE01C0
00FE0000
00FC0000
01FC0000
01FC0000
01F80000
03F80000
03F80000
03F80000
07F00000
07F00000
07F00000
0FF00000
0FF00000
3FF80000
3FF80000
3FF80000
ENDCHAR

STARTCHAR afii10101
ENCODING 244
SWIDTH 547 0
DWIDTH 27 0
BBX 28 23 1 -1
BITMAP
000FF000
003FFC00
00FFFE00
01FC1F00
03F00780
07E003C0
0FC001C0
1FC00000
1F800000
3F800000
3F800000
7FFF8000
7FFF8000
7F000000
7F000000
7F000E00
7F001F00
3F003F00
3F803F00
1FC07E00
0FFFFC00
07FFF000
007F0000
ENDCHAR

STARTCHAR afii10102
ENCODING 245
SWIDTH 490 0
DWIDTH 24 0
BBX 26 23 -1 -1
BITMAP
001FF000
007FFE00
00FC7F00
01F03F80
03F03F80
03F01F80
03F81F00
03FC0F00
03FF0000
01FF8000
00FFE000
007FF000
003FF800
001FF800
1C07FC00
3E03FC00
3F01FC00
7F01FC00
3F01F800
3F81F800
1FC7F000
0FFFC000
01FF0000
ENDCHAR

STARTCHAR afii10103
ENCODING 246
SWIDTH 333 0
DWIDTH 17 0
BBX 21 36 -1 -1
BITMAP
0001C0
0007E0
0007F0
000FF0
000FF0
0007E0
0007E0
000180
000000
000000
000000
000000
000000
00F800
03FC00
07FE00
0FFE00
1CFE00
38FE00
30FC00
01FC00
01FC00
03F800
03F800
03F000
07F000
07F000
0FE000
0FE000
0FC300
1FC600
1FFE00
1FFC00
1FF800
0FE000
078000
ENDCHAR

STARTCHAR afii10104
ENCODING 247
SWIDTH 333 0
DWIDTH 17 0
BBX 24 34 -1 -1
BITMAP
07C07C
07E07C
0FE0FE
0FE0FE
07E07C
03C03C
000000
000000
000000
000000
000000
01FC00
03FE00
07FE00
0EFE00
18FE00
38FE00
30FC00
01FC00
01FC00
03F800
03F800
03F000
07F000
07F000
0FE000
0FE180
0FC300
1FC700
1FFE00
1FFC00
1FF800
0FE000
030000
ENDCHAR

STARTCHAR afii10105
ENCODING 248
SWIDTH 323 0
DWIDTH 16 0
BBX 29 45 -9 -10
BITMAP
00000180
000007E0
000007F0
00000FF0
00000FF0
000007E0
000007E0
00000000
00000000
00000000
00000000
00000000
00003C00
0001FE00
0003FF00
0007FF00
000E7F00
000C7F00
00187F00
0000FE00
0000FE00
0000FE00
0000FC00
0001FC00
0001FC00
0001FC00
0001F800
0003F800
0003F800
0003F800
0007F000
0007F000
0007F000
0007E000
000FE000
000FE000
000FC000
001FC000
001F8000
1C1F8000
3E3F0000
3E3E0000
3FFC0000
3FF80000
1FC00000
ENDCHAR

STARTCHAR afii10106
ENCODING 249
SWIDTH 771 0
DWIDTH 39 0
BBX 40 24 -3 -1
BITMAP
0000001800
000007F800
00003FF800
0000FBF000
0001C7F000
000387F000
000707E000
00060FE000
000E0FE000
000C0FE7E0
000C1FDFF8
00181FFFFC
00181FF3FC
00181FC0FE
00301F80FE
00303F80FE
00303F00FE
00703F00FE
1FE03F01FC
3FE03F01FC
3FC01F83F8
3FC01FC7F0
3F800FFFC0
0E0001FF00
ENDCHAR

STARTCHAR afii10107
ENCODING 250
SWIDTH 823 0
DWIDTH 41 0
BBX 41 23 0 -1
BITMAP
00FE01FC0000
0FFE1FFC0000
0FFC3FF80000
03FC07F80000
01FC03F80000
01FC03F00000
01F807F00000
03F807F00000
03F807F3F000
03F00FEFFC00
07FFFFFFFE00
07FFFFF8FE00
07F00FE07F00
0FE01FC07F00
0FE01FC07F00
0FE01F807F00
1FC01F807F00
1FC01F80FE00
1FC01F80FE00
1F800FC1FC00
3F800FE3F800
3F8003FFF000
000000FF8000
ENDCHAR

STARTCHAR afii10108
ENCODING 251
SWIDTH 625 0
DWIDTH 31 0
BBX 33 36 -1 -1
BITMAP
0000E00000
003FE00000
00FFE00000
00FFC00000
001FC00000
001FC00000
001FC00000
00FFFFFC00
01FFFFF800
01FFFFF800
003F000000
007F000000
007F07E000
007E3FF800
00FFFFFC00
00FFFFFC00
00FFC1FC00
01FE01FC00
01FC01F800
01F801F800
03F803F800
03F803F800
03F003F000
03F007F000
07F007E000
07F00FE000
07E00FE000
0FE00FC000
0FE01FC700
0FC01F8E00
1FC03F9C00
1FC03FB800
1F803FF000
3F803FE000
3F801FC000
0000060000
ENDCHAR

STARTCHAR afii10109
ENCODING 252
SWIDTH 563 0
DWIDTH 28 0
BBX 29 36 0 0
BITMAP
00003F80
00007F80
00007F80
0000FF00
0000FE00
0000FC00
0001F800
0001F000
0003E000
0003C000
00000000
00000000
00000000
000E01C0
01FE07E0
0FFC07F0
1FFC0FF0
03FC0FE0
01F81DC0
03F81800
03F83800
03F87000
03F7E000
07FFE000
07FFE000
07E7F000
0FE3F000
0FE3F800
0FC3F800
0FC1F800
1FC1FC00
1F81FC00
1F80FE00
3F80FF00
3F80FF00
3F007F00
ENDCHAR

STARTCHAR section
ENCODING 253
SWIDTH 594 0
DWIDTH 30 0
BBX 35 45 -3 -10
BITMAP
000003FE00
00000FFF80
00003FFF80
0000F87F80
0001F03F80
0003E01F80
0007600600
0006600000
000EE00000
000CE00000
001CE00000
001CE00000
0018F00000
0038700000
0038700000
0038780000
0038380000
00383C0000
00383C0000
003C1E0000
003C1E0000
001C0F0000
001E0F0000
001E070000
000F078000
000F078000
0007838000
0007838000
0003C38000
0003C38000
0001C38000
0001C38000
0001E38000
0000E30000
0000E70000
0000E70000
0000EE0000
0000CC0000
0C00DC0000
1F00F80000
3F81F00000
3FE3E00000
3FFF800000
3FFE000000
0FF0000000
ENDCHAR

STARTCHAR afii10110
ENCODING 254
SWIDTH 552 0
DWIDTH 28 0
BBX 35 44 -6 -10
BITMAP
0000380300
00007C0600
00007E0E00
00007F1C00
00007FF800
00003FF000
00000FC000
0000000000
0000000000
0000000000
0000000000
000F801E00
001FC03F00
003FE03F80
007FE03F80
00EFE03F80
00C7E03F80
00C7F03F80
0187F03F80
0007F01F00
0007F01F00
0003F81E00
0003F81E00
0003F83C00
0003F83800
0001FC7800
0001FC7000
0001FCE000
0001FDE000
0000FFC000
0000FF8000
0000FF0000
0000FE0000
00007C0000
0000780000
0000700000
0000E00000
1E03C00000
3F87800000
3FFF000000
3FFC000000
3FF8000000
1FE0000000
0F80000000
ENDCHAR

STARTCHAR afii10193
ENCODING 255
SWIDTH 635 0
DWIDTH 32 0
BBX 35 31 -2 -9
BITMAP
00FE007F00
01FE007F00
03FF007E00
077F00FE00
0E7F00FE00
0C7F01FE00
187E01FC00
00FE03FC00
00FE03FC00
00FC07F800
01FC07F800
01FC0FF800
01F80FF000
03F81BF000
03F83FF000
03F037E180
07F067E300
07F0EFE700
07F1CFEE00
07FF8FFC00
03FE0FF800
01FC07E000
0060018000
00E0000000
01E0000000
03E0000000
03C0000000
07C0000000
0FC0000000
1F80000000
3E00000000
ENDCHAR
ENDFONT
